<?xml version="1.0" encoding="UTF-8" standalone="no"?>
<!-- Created with Inkscape (http://www.inkscape.org/) -->

<svg
   width="101.76428mm"
   height="133.41656mm"
   viewBox="0 0 101.76428 133.41656"
   version="1.1"
   id="svg13863"
   inkscape:version="1.1.2 (b8e25be833, 2022-02-05)"
   sodipodi:docname="ConcernedDuck.svg"
   xmlns:inkscape="http://www.inkscape.org/namespaces/inkscape"
   xmlns:sodipodi="http://sodipodi.sourceforge.net/DTD/sodipodi-0.dtd"
   xmlns="http://www.w3.org/2000/svg"
   xmlns:svg="http://www.w3.org/2000/svg">
  <sodipodi:namedview
     id="namedview13865"
     pagecolor="#ffffff"
     bordercolor="#666666"
     borderopacity="1.0"
     inkscape:pageshadow="2"
     inkscape:pageopacity="0.0"
     inkscape:pagecheckerboard="0"
     inkscape:document-units="mm"
     showgrid="false"
     fit-margin-top="0"
     fit-margin-left="0"
     fit-margin-right="0"
     fit-margin-bottom="0"
     inkscape:zoom="0.64052329"
     inkscape:cx="217.01006"
     inkscape:cy="532.37721"
     inkscape:window-width="1920"
     inkscape:window-height="1057"
     inkscape:window-x="-8"
     inkscape:window-y="-8"
     inkscape:window-maximized="1"
     inkscape:current-layer="layer1" />
  <defs
     id="defs13860">
    <inkscape:path-effect
       effect="spiro"
       id="path-effect894-8"
       is_visible="true"
       lpeversion="1" />
    <inkscape:path-effect
       effect="spiro"
       id="path-effect898-1"
       is_visible="true"
       lpeversion="1" />
    <inkscape:path-effect
       effect="spiro"
       id="path-effect898-3-3"
       is_visible="true"
       lpeversion="1" />
    <inkscape:path-effect
       effect="spiro"
       id="path-effect890-0"
       is_visible="true"
       lpeversion="1" />
    <inkscape:path-effect
       effect="bspline"
       id="path-effect1216-9"
       is_visible="true"
       lpeversion="1"
       weight="33.333333"
       steps="2"
       helper_size="0"
       apply_no_weight="true"
       apply_with_weight="true"
       only_selected="false" />
    <inkscape:path-effect
       effect="bspline"
       id="path-effect1216-4-7"
       is_visible="true"
       lpeversion="1"
       weight="33.333333"
       steps="2"
       helper_size="0"
       apply_no_weight="true"
       apply_with_weight="true"
       only_selected="false" />
    <inkscape:path-effect
       effect="bspline"
       id="path-effect2181-2"
       is_visible="true"
       lpeversion="1"
       weight="33.333333"
       steps="2"
       helper_size="0"
       apply_no_weight="true"
       apply_with_weight="true"
       only_selected="false" />
    <inkscape:path-effect
       effect="bspline"
       id="path-effect2522-8"
       is_visible="true"
       lpeversion="1"
       weight="33.333333"
       steps="2"
       helper_size="0"
       apply_no_weight="true"
       apply_with_weight="true"
       only_selected="false" />
    <inkscape:path-effect
       effect="bspline"
       id="path-effect2522-1-09"
       is_visible="true"
       lpeversion="1"
       weight="33.333333"
       steps="2"
       helper_size="0"
       apply_no_weight="true"
       apply_with_weight="true"
       only_selected="false" />
    <inkscape:path-effect
       effect="spiro"
       id="path-effect9951"
       is_visible="true"
       lpeversion="1" />
    <inkscape:path-effect
       effect="spiro"
       id="path-effect9951-3"
       is_visible="true"
       lpeversion="1" />
  </defs>
  <g
     inkscape:label="Layer 1"
     inkscape:groupmode="layer"
     id="layer1"
     transform="translate(-13.557357,-7.2319118)">
    <path
       style="fill:#ffdd55;stroke:#ffe680;stroke-width:0.264583px;stroke-linecap:butt;stroke-linejoin:miter;stroke-opacity:1"
       d="m 39.821987,69.13073 c -3.132931,3.16831 -5.828091,6.737376 -8.468013,10.32684 -3.077256,4.1841 -6.122246,8.463414 -8.077906,13.275024 -1.955659,4.81161 -2.75243,10.265576 -1.21625,15.227066 1.503499,4.85594 5.133814,8.85674 9.414109,11.59894 4.280296,2.74221 9.193228,4.3361 14.131094,5.54362 12.207168,2.98517 25.308138,3.71791 37.17663,-0.41308 6.311562,-2.19683 12.26084,-5.84128 16.31641,-11.15299 4.514829,-5.91321 6.407219,-13.699682 5.369959,-21.06676 -1.16343,-8.263193 -5.776414,-15.691056 -11.359519,-21.8929 -2.254037,-2.503838 -4.691434,-4.861002 -7.43533,-6.81572 -4.866743,-3.467008 -10.668299,-5.604782 -16.619633,-6.140459 -5.951334,-0.535677 -12.037266,0.530319 -17.458957,3.042409 -4.40944,2.043073 -8.355569,5.012399 -11.772594,8.46801 z"
       id="path892-8"
       inkscape:path-effect="#path-effect894-8"
       inkscape:original-d="m 39.821987,69.13073 c -3.924467,2.8224 -5.645078,6.88482 -8.468013,10.32684 -2.822935,3.44202 -6.195841,19.00166 -9.294156,28.50209 -3.098319,9.50043 15.697064,11.42863 23.545203,17.14256 7.84813,5.71392 24.78468,-0.27512 37.17663,-0.41308 12.39195,-0.13795 10.87788,-7.43506 16.31641,-11.15299 5.438539,-3.71793 3.580239,-14.04424 5.369959,-21.06676 1.78972,-7.02251 -7.572749,-14.595 -11.359519,-21.8929 -3.78678,-7.29791 -4.95662,-4.54355 -7.43533,-6.81572 -2.47871,-2.27217 -22.71879,-2.06511 -34.07859,-3.09805 -11.359786,-1.03295 -7.84813,5.6456 -11.772594,8.46801 z"
       inkscape:export-filename="E:\Hackathon\ConcernedDuck.png"
       inkscape:export-xdpi="800"
       inkscape:export-ydpi="800" />
    <path
       style="fill:#ff9955;stroke:#ff9955;stroke-width:0.264583px;stroke-linecap:butt;stroke-linejoin:miter;stroke-opacity:1"
       d="m 43.746191,124.48261 c -0.329942,0.66912 -0.498331,1.40371 -0.706747,2.12006 -0.208416,0.71634 -0.468403,1.43716 -0.945554,2.01067 -0.373653,0.44911 -0.868259,0.78942 -1.404217,1.02194 -0.535958,0.23252 -1.113073,0.36031 -1.693834,0.42382 -1.327167,0.14512 -2.6843,-0.0388 -3.99428,0.21881 -0.654989,0.12883 -1.297629,0.37308 -1.819815,0.78893 -0.522186,0.41585 -0.9154,1.01529 -1.001622,1.67724 -0.06793,0.52149 0.05815,1.06236 0.330189,1.51242 0.272042,0.45007 0.685698,0.80925 1.159798,1.03683 0.474101,0.22758 1.006551,0.32555 1.532057,0.30537 0.525506,-0.0202 1.043892,-0.15664 1.521767,-0.37618 0.765123,-0.35151 1.416814,-0.90608 2.141082,-1.33551 0.362133,-0.21472 0.74567,-0.39927 1.153477,-0.50385 0.407807,-0.10458 0.84212,-0.12665 1.249252,-0.0195 0.436473,0.1149 0.826599,0.37473 1.138286,0.70117 0.311687,0.32643 0.54883,0.71783 0.740911,1.12626 0.38416,0.81686 0.595915,1.70894 1.01232,2.50984 0.407872,0.78449 1.035862,1.48555 1.855095,1.81818 0.409617,0.16632 0.861102,0.23614 1.29938,0.17818 0.438278,-0.058 0.861814,-0.2466 1.182795,-0.5506 0.401229,-0.38001 0.624048,-0.91759 0.721331,-1.46158 0.09728,-0.544 0.07956,-1.10109 0.06522,-1.65353 -0.01434,-0.55243 -0.0245,-1.11051 0.08735,-1.6517 0.111847,-0.54118 0.357366,-1.07136 0.778407,-1.42929 0.387144,-0.32912 0.8997,-0.49038 1.407618,-0.50509 0.507919,-0.0147 1.012346,0.10923 1.483892,0.29855 1.668672,0.66995 2.903143,2.10863 4.46277,3.00353 0.779814,0.44746 1.66371,0.75942 2.561916,0.72004 0.449102,-0.0197 0.896542,-0.12853 1.294283,-0.33801 0.39774,-0.20949 0.744316,-0.5214 0.975191,-0.90712 0.269305,-0.44992 0.37414,-0.99108 0.320091,-1.51265 -0.05405,-0.52157 -0.262911,-1.02245 -0.572877,-1.44539 -0.619931,-0.84587 -1.61532,-1.35672 -2.638724,-1.58577 -1.512598,-0.33854 -3.091422,-0.11924 -4.634884,-0.26167 -0.771731,-0.0712 -1.544682,-0.23691 -2.233379,-0.59235 -0.688698,-0.35544 -1.290177,-0.91393 -1.599757,-1.62442 -0.279777,-0.64209 -0.308182,-1.36162 -0.326614,-2.06178 -0.01843,-0.70016 -0.0345,-1.41801 -0.292996,-2.06896 -0.257082,-0.64738 -0.750841,-1.19379 -1.358156,-1.53491 -0.607314,-0.34112 -1.323043,-0.4785 -2.016158,-0.40932 -0.693115,0.0692 -1.361675,0.34159 -1.919981,0.75811 -0.558306,0.41652 -1.006819,0.97446 -1.314875,1.5992 z"
       id="path896-4"
       inkscape:path-effect="#path-effect898-1"
       inkscape:original-d="m 43.746191,124.48261 c -2.20333,0.13742 -1.101269,2.75408 -1.652301,4.13073 -0.551029,1.37665 -2.065102,0.96411 -3.098051,1.44576 -1.032949,0.48165 -4.543547,1.79025 -6.815717,2.68498 -2.27217,0.89473 3.029471,1.65256 4.543811,2.47844 1.51434,0.82588 3.029471,-1.23895 4.543811,-1.85883 1.514338,-0.61987 1.927937,2.89178 2.891517,4.33727 0.96357,1.4455 2.89178,0.96411 4.33727,1.44576 1.4455,0.48166 1.1018,-4.13047 1.6523,-6.1961 0.5505,-2.06564 1.92794,-0.13743 2.89151,-0.20654 0.96358,-0.0691 6.19637,1.65256 9.29416,2.47844 3.09779,0.82588 -1.92741,-3.02894 -2.89151,-4.54381 -0.96411,-1.51487 -5.64508,-1.65203 -8.46802,-2.47844 -2.82293,-0.82641 -0.4128,-2.75356 -0.61961,-4.13074 -0.2068,-1.37718 -4.40585,0.27565 -6.60917,0.41308 z"
       inkscape:export-filename="E:\Hackathon\ConcernedDuck.png"
       inkscape:export-xdpi="800"
       inkscape:export-ydpi="800" />
    <path
       style="fill:#ff9955;stroke:#ff9955;stroke-width:0.264583px;stroke-linecap:butt;stroke-linejoin:miter;stroke-opacity:1"
       d="m 78.493061,125.28134 c -0.329942,0.66912 -0.498331,1.40371 -0.706747,2.12006 -0.208416,0.71634 -0.468402,1.43716 -0.945553,2.01067 -0.373653,0.44911 -0.868258,0.78942 -1.404216,1.02194 -0.535958,0.23252 -1.113073,0.36031 -1.693834,0.42382 -1.327167,0.14512 -2.684301,-0.0388 -3.994281,0.21881 -0.65499,0.12883 -1.29763,0.37308 -1.819816,0.78893 -0.522187,0.41585 -0.915401,1.01529 -1.001623,1.67724 -0.06793,0.52149 0.05815,1.06236 0.330189,1.51242 0.272042,0.45006 0.685697,0.80925 1.159798,1.03683 0.4741,0.22758 1.006551,0.32555 1.532056,0.30537 0.525506,-0.0202 1.043892,-0.15664 1.521767,-0.37618 0.765122,-0.35151 1.416814,-0.90608 2.141081,-1.33551 0.362134,-0.21472 0.745671,-0.39927 1.153477,-0.50385 0.407807,-0.10458 0.84212,-0.12665 1.249252,-0.0195 0.436473,0.1149 0.826599,0.37473 1.138287,0.70117 0.311687,0.32643 0.548831,0.71783 0.740911,1.12626 0.384161,0.81686 0.595917,1.70893 1.012322,2.50984 0.407872,0.78449 1.035862,1.48555 1.855095,1.81818 0.409617,0.16632 0.861102,0.23614 1.29938,0.17818 0.438278,-0.058 0.861814,-0.2466 1.182795,-0.5506 0.401229,-0.38001 0.624049,-0.91759 0.721331,-1.46158 0.09728,-0.544 0.07956,-1.10109 0.06522,-1.65353 -0.01434,-0.55243 -0.0245,-1.11051 0.08735,-1.6517 0.111847,-0.54118 0.357365,-1.07136 0.778406,-1.42929 0.387145,-0.32912 0.899703,-0.49038 1.407623,-0.5051 0.507921,-0.0147 1.012349,0.10924 1.483897,0.29856 1.66867,0.66995 2.903139,2.10863 4.462765,3.00353 0.779813,0.44746 1.663708,0.75942 2.561913,0.72004 0.449102,-0.0197 0.896542,-0.12853 1.294282,-0.33801 0.39774,-0.20949 0.744316,-0.5214 0.97519,-0.90712 0.269305,-0.44992 0.374139,-0.99108 0.32009,-1.51265 -0.05405,-0.52157 -0.262913,-1.02245 -0.57288,-1.44539 -0.619934,-0.84588 -1.615324,-1.35672 -2.63873,-1.58577 -1.512594,-0.33854 -3.091415,-0.11924 -4.634873,-0.26168 -0.771729,-0.0712 -1.544678,-0.23691 -2.233373,-0.59234 -0.688696,-0.35544 -1.290173,-0.91393 -1.599754,-1.62442 -0.279778,-0.64209 -0.308185,-1.36162 -0.326619,-2.06178 -0.01843,-0.70016 -0.0345,-1.41801 -0.293001,-2.06896 -0.257083,-0.64738 -0.750843,-1.19379 -1.358157,-1.53491 -0.607314,-0.34112 -1.323043,-0.4785 -2.016158,-0.40932 -0.693114,0.0692 -1.361674,0.34159 -1.91998,0.75811 -0.558306,0.41652 -1.006819,0.97446 -1.314875,1.5992 z"
       id="path896-8-6"
       inkscape:path-effect="#path-effect898-3-3"
       inkscape:original-d="m 78.493061,125.28134 c -2.20333,0.13742 -1.10127,2.75408 -1.6523,4.13073 -0.55103,1.37665 -2.0651,0.96411 -3.09805,1.44576 -1.03295,0.48165 -4.54355,1.79025 -6.81572,2.68498 -2.27217,0.89473 3.02947,1.65256 4.54381,2.47844 1.51434,0.82588 3.02947,-1.23895 4.54381,-1.85883 1.51434,-0.61987 1.92795,2.89178 2.89152,4.33727 0.96358,1.4455 2.89178,0.96411 4.33727,1.44576 1.4455,0.48166 1.1018,-4.13047 1.6523,-6.1961 0.5505,-2.06564 1.92794,-0.13743 2.89152,-0.20654 0.96357,-0.0691 6.19637,1.65256 9.29415,2.47844 3.097789,0.82588 -1.92741,-3.02894 -2.89152,-4.54381 -0.9641,-1.51487 -5.64507,-1.65203 -8.468,-2.47844 -2.82294,-0.82641 -0.41281,-2.75356 -0.61962,-4.13074 -0.2068,-1.37718 -4.40585,0.27565 -6.60917,0.41308 z"
       inkscape:export-filename="E:\Hackathon\ConcernedDuck.png"
       inkscape:export-xdpi="800"
       inkscape:export-ydpi="800" />
    <path
       style="fill:#ffdd55;stroke:#ffdd55;stroke-width:0.264583px;stroke-linecap:butt;stroke-linejoin:miter;stroke-opacity:1"
       d="m 48.083461,68.09804 c -2.176619,0.559194 -4.400687,0.984105 -6.647558,1.028173 -2.24687,0.04407 -4.525286,-0.303988 -6.570803,-1.234703 -3.493388,-1.5895 -6.075889,-4.793694 -7.534055,-8.343909 -1.458167,-3.550214 -1.89081,-7.439837 -1.96664,-11.277091 -0.127991,-6.476734 0.745332,-13.050368 3.30459,-19.00139 2.436701,-5.666041 6.380503,-10.660866 11.259299,-14.43431 6.734146,-5.2084421 15.363886,-8.0617736 23.84885,-7.3675211 8.484963,0.6942524 16.706208,5.0645971 21.618617,12.0176411 2.422825,3.429276 4.01276,7.362374 5.64737,11.22994 2.688002,6.359944 5.586099,12.764798 6.40264,19.621 0.392846,3.29859 0.274642,6.736689 -0.996324,9.805836 -0.635484,1.534574 -1.557684,2.959149 -2.758956,4.106189 -1.201272,1.14704 -2.686143,2.010279 -4.29966,2.404385 -2.100392,0.513027 -4.320036,0.221325 -6.409022,-0.336331 -2.088987,-0.557656 -4.101406,-1.375392 -6.189718,-1.935569 -5.443169,-1.460098 -11.251614,-1.117411 -16.72949,0.20654 -4.045287,0.977708 -7.948277,2.475553 -11.97914,3.51112 z"
       id="path888-3"
       inkscape:path-effect="#path-effect890-0"
       inkscape:original-d="m 48.083461,68.09804 c -3.99331,1.17012 -8.811977,-0.13743 -13.218361,-0.20653 -4.406384,-0.0691 -6.333532,-13.08041 -9.500695,-19.621 -3.167163,-6.5406 2.203326,-12.66733 3.30459,-19.00139 1.101265,-6.33407 6.922289,-7.48064 11.259299,-14.43431 4.337007,-6.95367 31.285527,2.51617 45.467467,4.65012 14.18193,2.13395 3.37573,5.92909 5.64737,11.22994 2.27164,5.30085 4.26869,13.08094 6.40264,19.621 2.13395,6.54007 -5.36969,10.87787 -8.05494,16.31641 -2.68524,5.43855 -8.3989,-1.51434 -12.59874,-2.2719 -4.19986,-0.75757 -11.15274,0.13796 -16.72949,0.20654 -5.57676,0.0686 -7.98583,2.34101 -11.97914,3.51112 z"
       sodipodi:nodetypes="ssssssssssss"
       inkscape:export-filename="E:\Hackathon\ConcernedDuck.png"
       inkscape:export-xdpi="800"
       inkscape:export-ydpi="800" />
    <path
       style="fill:#ffd42a;stroke:#ffd42a;stroke-width:0.264583px;stroke-linecap:butt;stroke-linejoin:miter;stroke-opacity:1"
       d="m 39.821987,69.13073 c -5.094446,2.134159 -10.18902,4.268372 -14.732943,7.538616 -4.543922,3.270245 -8.536887,7.676276 -10.292425,12.151427 -1.755538,4.475152 -1.273628,9.018872 0.413262,11.910317 1.686891,2.89145 4.578351,4.13065 6.919055,4.54363 2.340705,0.41297 4.130655,-9e-5 6.09269,-1.13605 1.962035,-1.13595 4.096204,-2.99474 6.333675,-6.264897 2.237471,-3.270152 4.578175,-7.951562 5.473205,-12.977256 0.895029,-5.025693 0.344275,-10.395543 -0.206519,-15.765787 0,0 0,0 0,0"
       id="path1214-2"
       inkscape:path-effect="#path-effect1216-9"
       inkscape:original-d="m 39.821987,69.13073 c -5.094311,2.13448 -10.188887,4.26869 -15.283727,6.40264 -3.992863,4.40647 -7.985829,8.8125 -11.979139,13.21836 0.482194,4.54417 0.964103,9.08789 1.445758,13.63143 2.891838,1.23951 5.783296,2.47871 8.674548,3.71766 1.790287,-0.41281 3.580236,-0.82588 5.369959,-1.23922 2.134521,-1.8586 4.268692,-3.71739 6.402642,-5.57649 2.341062,-4.68133 4.681767,-9.36274 7.022253,-14.04451 -0.550511,-5.3698 -1.101265,-10.73965 -1.652294,-16.10987 0,0 2.65e-4,2.6e-4 0,0"
       inkscape:export-filename="E:\Hackathon\ConcernedDuck.png"
       inkscape:export-xdpi="800"
       inkscape:export-ydpi="800" />
    <path
       style="fill:#ffd42a;stroke:#ffd42a;stroke-width:0.264583px;stroke-linecap:butt;stroke-linejoin:miter;stroke-opacity:1"
       d="m 89.057001,66.87922 c 5.094445,2.134158 10.189023,4.268372 14.732949,7.538616 4.54392,3.270243 8.53688,7.676276 10.29242,12.151428 1.75554,4.475152 1.27364,9.018872 -0.41326,11.910321 -1.68689,2.891445 -4.57836,4.130645 -6.91906,4.543625 -2.34071,0.41297 -4.13066,-9e-5 -6.09269,-1.13605 -1.962033,-1.13595 -4.096202,-2.994744 -6.333672,-6.264896 -2.23747,-3.270153 -4.578174,-7.951565 -5.473203,-12.977258 -0.895029,-5.025692 -0.344277,-10.395542 0.206516,-15.765786 0,0 0,0 0,0"
       id="path1214-8-7"
       inkscape:path-effect="#path-effect1216-4-7"
       inkscape:original-d="m 89.057001,66.87922 c 5.09431,2.13448 10.18889,4.26869 15.283729,6.40264 3.99286,4.40647 7.98583,8.8125 11.97914,13.21836 -0.4822,4.54417 -0.96411,9.08789 -1.44575,13.63143 -2.89185,1.23951 -5.78331,2.47871 -8.67456,3.71766 -1.79029,-0.41281 -3.58024,-0.82588 -5.36996,-1.23922 -2.134519,-1.8586 -4.268689,-3.71739 -6.402639,-5.57649 -2.34106,-4.68133 -4.68177,-9.36274 -7.02225,-14.04451 0.55051,-5.3698 1.10126,-10.73965 1.65229,-16.10987 0,0 -2.6e-4,2.6e-4 0,0"
       inkscape:export-filename="E:\Hackathon\ConcernedDuck.png"
       inkscape:export-xdpi="800"
       inkscape:export-ydpi="800" />
    <path
       id="path1558-37"
       style="fill:#2b0000;stroke:#2b0000;stroke-width:0.339;stroke-linecap:round;stroke-linejoin:round"
       d="m 48.703071,45.17245 a 6.0928369,6.1961055 0 0 1 -6.092835,6.19611 6.0928369,6.1961055 0 0 1 -6.092837,-6.19611 6.0928369,6.1961055 0 0 1 6.092837,-6.1961 6.0928369,6.1961055 0 0 1 6.092835,6.1961 z"
       inkscape:export-filename="E:\Hackathon\ConcernedDuck.png"
       inkscape:export-xdpi="800"
       inkscape:export-ydpi="800" />
    <path
       id="path1558-3-2"
       style="fill:#2b0000;stroke:#2b0000;stroke-width:0.339;stroke-linecap:round;stroke-linejoin:round"
       d="m 85.982981,43.7267 a 6.0928369,6.1961055 0 0 1 -6.09284,6.1961 6.0928369,6.1961055 0 0 1 -6.09284,-6.1961 6.0928369,6.1961055 0 0 1 6.09284,-6.19611 6.0928369,6.1961055 0 0 1 6.09284,6.19611 z"
       inkscape:export-filename="E:\Hackathon\ConcernedDuck.png"
       inkscape:export-xdpi="800"
       inkscape:export-ydpi="800" />
    <path
       style="fill:#ff9955;stroke:#ff9955;stroke-width:0.264583px;stroke-linecap:butt;stroke-linejoin:miter;stroke-opacity:1"
       d="m 51.866956,56.973174 c 1.004672,-0.459234 2.687172,-0.650493 3.993907,-1.471066 1.306734,-0.820573 2.237859,-2.270476 3.478071,-3.202042 1.240212,-0.931565 2.789213,-1.344631 4.303902,-1.29291 1.514688,0.05172 2.994838,0.568053 4.234029,1.407689 1.239191,0.839636 2.237413,2.002325 3.265613,2.680092 1.0282,0.677768 2.086181,0.870753 2.951819,1.26327 0.865638,0.392517 1.538778,0.984288 1.216733,1.498402 -0.322044,0.514114 -1.639134,0.950795 -3.124377,1.40558 -1.485243,0.454784 -3.138482,0.927618 -6.09936,1.129652 -2.960878,0.202035 -7.229228,0.13319 -10.093438,-0.162815 -2.86421,-0.296005 -4.32417,-0.819248 -4.891121,-1.444414 -0.566952,-0.625165 -0.240449,-1.352204 0.764222,-1.811438 z"
       id="path2179-3"
       inkscape:path-effect="#path-effect2181-2"
       inkscape:original-d="m 51.188851,56.70523 c 1.68281,-0.191 3.36531,-0.38226 5.04762,-0.57379 0.93143,-1.44971 1.86256,-2.89961 2.79344,-4.34981 1.54932,-0.41281 3.09832,-0.82588 4.64708,-1.23922 1.48048,0.51662 2.96063,1.03295 4.44054,1.54903 0.99855,1.16302 1.99677,2.32571 2.99479,3.48821 1.05832,0.19326 2.1163,0.38625 3.17412,0.57899 0.67348,0.5921 1.34662,1.18387 2.01955,1.77543 -1.3169,0.43697 -2.63399,0.87365 -3.95141,1.31009 -1.65308,0.47313 -3.30632,0.94596 -4.95993,1.41856 -4.26824,-0.0686 -8.53659,-0.13743 -12.80528,-0.20654 -1.45978,-0.52301 -2.91974,-1.04625 -4.38005,-1.56979 0.32678,-0.7268 0.65328,-1.45384 0.97953,-2.18116 z"
       sodipodi:nodetypes="ccccccccccccc"
       inkscape:export-filename="E:\Hackathon\ConcernedDuck.png"
       inkscape:export-xdpi="800"
       inkscape:export-ydpi="800" />
    <path
       style="fill:#ffffff;stroke:#ffffff;stroke-width:0.264583px;stroke-linecap:butt;stroke-linejoin:miter;stroke-opacity:1"
       d="m 81.481668,38.954397 c -0.499167,0.170402 -0.718235,0.803263 -0.705938,1.314497 0.0123,0.511233 0.255696,0.900673 0.681724,1.192659 0.426029,0.291985 1.034529,0.486705 1.435966,0.365009 0.401436,-0.121696 0.596158,-0.559816 0.669223,-1.022211 0.07307,-0.462396 0.02439,-0.949198 -0.389264,-1.338735 -0.413651,-0.389538 -1.192543,-0.681621 -1.691711,-0.511219 z"
       id="path2520-02"
       inkscape:original-d="m 81.201621,38.49179 c -0.2188,0.63312 -0.43787,1.26598 -0.6572,1.89857 0.24368,0.38972 0.48708,0.77916 0.73022,1.16835 0.60879,0.19499 1.21729,0.38971 1.82554,0.58417 0.195,-0.43787 0.38972,-0.87599 0.58418,-1.31439 -0.0484,-0.48656 -0.0971,-0.97336 -0.14604,-1.46044 -0.77865,-0.29182 -1.55754,-0.58391 -2.3367,-0.87626 z"
       inkscape:path-effect="#path-effect2522-8"
       inkscape:export-filename="E:\Hackathon\ConcernedDuck.png"
       inkscape:export-xdpi="800"
       inkscape:export-ydpi="800" />
    <path
       style="fill:#ffffff;stroke:#ffffff;stroke-width:0.264583px;stroke-linecap:butt;stroke-linejoin:miter;stroke-opacity:1"
       d="m 44.554211,40.717433 c -0.499164,0.170398 -0.718231,0.803259 -0.705936,1.31449 0.0123,0.511231 0.255693,0.900672 0.681721,1.192658 0.426027,0.291986 1.034537,0.486708 1.435971,0.365012 0.401435,-0.121695 0.596154,-0.559815 0.669218,-1.022212 0.07306,-0.462396 0.02438,-0.949198 -0.389268,-1.338731 -0.413652,-0.389533 -1.192541,-0.681615 -1.691706,-0.511217 z"
       id="path2520-0-2"
       inkscape:original-d="m 44.274161,40.25483 c -0.2188,0.63311 -0.43787,1.26597 -0.65719,1.89856 0.24367,0.38972 0.48707,0.77916 0.73021,1.16835 0.60879,0.19499 1.2173,0.38971 1.82555,0.58417 0.19499,-0.43787 0.38971,-0.87599 0.58417,-1.31439 -0.0484,-0.48656 -0.0971,-0.97336 -0.14604,-1.46043 -0.77865,-0.29183 -1.55754,-0.58391 -2.3367,-0.87626 z"
       inkscape:path-effect="#path-effect2522-1-09"
       inkscape:export-filename="E:\Hackathon\ConcernedDuck.png"
       inkscape:export-xdpi="800"
       inkscape:export-ydpi="800" />
    <path
       id="path2818-87"
       style="fill:#d77c3f;fill-opacity:1;stroke:none;stroke-width:4.16663;stroke-linecap:round;stroke-linejoin:round"
       d="m 60.846241,54.0193 a 0.69370712,0.69370718 0 0 1 -0.6937,0.69371 0.69370712,0.69370718 0 0 1 -0.69371,-0.69371 0.69370712,0.69370718 0 0 1 0.69371,-0.69371 0.69370712,0.69370718 0 0 1 0.6937,0.69371 z"
       inkscape:export-filename="E:\Hackathon\ConcernedDuck.png"
       inkscape:export-xdpi="800"
       inkscape:export-ydpi="800" />
    <path
       id="path2818-8-5"
       style="fill:#d77c3f;fill-opacity:1;stroke:none;stroke-width:4.16663;stroke-linecap:round;stroke-linejoin:round"
       d="m 66.213351,53.90977 a 0.69370712,0.69370718 0 0 1 -0.69371,0.69371 0.69370712,0.69370718 0 0 1 -0.6937,-0.69371 0.69370712,0.69370718 0 0 1 0.6937,-0.69371 0.69370712,0.69370718 0 0 1 0.69371,0.69371 z"
       inkscape:export-filename="E:\Hackathon\ConcernedDuck.png"
       inkscape:export-xdpi="800"
       inkscape:export-ydpi="800" />
    <path
       style="fill:none;stroke:#d7ab00;stroke-width:1.065;stroke-linecap:round;stroke-linejoin:miter;stroke-miterlimit:4;stroke-dasharray:none;stroke-opacity:1"
       d="m 52.50696,30.58847 c -1.060622,1.543773 -2.636413,2.727001 -4.41475,3.31494 -1.479563,0.489161 -3.092348,0.56841 -4.61274,0.22666"
       id="path9949"
       inkscape:original-d="m 52.50696,30.58847 c -1.4714,1.10531 -2.94298,2.21029 -4.41475,3.31494 -1.47176,1.10465 -3.07498,0.15143 -4.61274,0.22666"
       inkscape:path-effect="#path-effect9951"
       inkscape:export-filename="E:\Hackathon\ConcernedDuck.png"
       inkscape:export-xdpi="800"
       inkscape:export-ydpi="800" />
    <path
       style="fill:none;stroke:#d7ab00;stroke-width:1.065;stroke-linecap:round;stroke-linejoin:miter;stroke-miterlimit:4;stroke-dasharray:none;stroke-opacity:1"
       d="m 68.81804,29.46164 c 1.060622,1.543773 2.636413,2.727001 4.41475,3.31494 1.479563,0.489161 3.092348,0.56841 4.61274,0.22666"
       id="path9949-0"
       inkscape:original-d="m 68.81804,29.46164 c 1.4714,1.10531 2.94298,2.21029 4.41475,3.31494 1.47176,1.10465 3.07498,0.15143 4.61274,0.22666"
       inkscape:path-effect="#path-effect9951-3"
       inkscape:export-filename="E:\Hackathon\ConcernedDuck.png"
       inkscape:export-xdpi="800"
       inkscape:export-ydpi="800" />
  </g>
</svg>
