<?xml version="1.0" encoding="UTF-8" standalone="no"?>
<!-- Created with Inkscape (http://www.inkscape.org/) -->

<svg
   width="101.76427mm"
   height="133.41656mm"
   viewBox="0 0 101.76427 133.41656"
   version="1.1"
   id="svg13651"
   inkscape:version="1.1.2 (b8e25be833, 2022-02-05)"
   sodipodi:docname="HappyDuck.svg"
   xmlns:inkscape="http://www.inkscape.org/namespaces/inkscape"
   xmlns:sodipodi="http://sodipodi.sourceforge.net/DTD/sodipodi-0.dtd"
   xmlns="http://www.w3.org/2000/svg"
   xmlns:svg="http://www.w3.org/2000/svg">
  <sodipodi:namedview
     id="namedview13653"
     pagecolor="#ffffff"
     bordercolor="#666666"
     borderopacity="1.0"
     inkscape:pageshadow="2"
     inkscape:pageopacity="0.0"
     inkscape:pagecheckerboard="0"
     inkscape:document-units="mm"
     showgrid="false"
     fit-margin-top="0"
     fit-margin-left="0"
     fit-margin-right="0"
     fit-margin-bottom="0"
     inkscape:zoom="0.64052329"
     inkscape:cx="71.81628"
     inkscape:cy="394.98954"
     inkscape:window-width="1920"
     inkscape:window-height="1057"
     inkscape:window-x="-8"
     inkscape:window-y="-8"
     inkscape:window-maximized="1"
     inkscape:current-layer="layer1" />
  <defs
     id="defs13648">
    <inkscape:path-effect
       effect="spiro"
       id="path-effect894"
       is_visible="true"
       lpeversion="1" />
    <inkscape:path-effect
       effect="spiro"
       id="path-effect898"
       is_visible="true"
       lpeversion="1" />
    <inkscape:path-effect
       effect="spiro"
       id="path-effect898-3"
       is_visible="true"
       lpeversion="1" />
    <inkscape:path-effect
       effect="spiro"
       id="path-effect890"
       is_visible="true"
       lpeversion="1" />
    <inkscape:path-effect
       effect="bspline"
       id="path-effect1216"
       is_visible="true"
       lpeversion="1"
       weight="33.333333"
       steps="2"
       helper_size="0"
       apply_no_weight="true"
       apply_with_weight="true"
       only_selected="false" />
    <inkscape:path-effect
       effect="bspline"
       id="path-effect1216-4"
       is_visible="true"
       lpeversion="1"
       weight="33.333333"
       steps="2"
       helper_size="0"
       apply_no_weight="true"
       apply_with_weight="true"
       only_selected="false" />
    <inkscape:path-effect
       effect="bspline"
       id="path-effect2181"
       is_visible="true"
       lpeversion="1"
       weight="33.333333"
       steps="2"
       helper_size="0"
       apply_no_weight="true"
       apply_with_weight="true"
       only_selected="false" />
    <inkscape:path-effect
       effect="bspline"
       id="path-effect2522"
       is_visible="true"
       lpeversion="1"
       weight="33.333333"
       steps="2"
       helper_size="0"
       apply_no_weight="true"
       apply_with_weight="true"
       only_selected="false" />
    <inkscape:path-effect
       effect="bspline"
       id="path-effect2522-1"
       is_visible="true"
       lpeversion="1"
       weight="33.333333"
       steps="2"
       helper_size="0"
       apply_no_weight="true"
       apply_with_weight="true"
       only_selected="false" />
  </defs>
  <g
     inkscape:label="Layer 1"
     inkscape:groupmode="layer"
     id="layer1"
     transform="translate(-51.973217,-43.582394)">
    <path
       style="fill:#ffdd55;stroke:#ffe680;stroke-width:0.264583px;stroke-linecap:butt;stroke-linejoin:miter;stroke-opacity:1"
       d="m 78.23785,105.48121 c -3.132931,3.16831 -5.828089,6.73738 -8.46801,10.32684 -3.077255,4.1841 -6.122246,8.46341 -8.077906,13.27502 -1.955661,4.81161 -2.752433,10.26558 -1.216254,15.22707 1.503498,4.85594 5.133813,8.85674 9.414108,11.59894 4.280295,2.74221 9.193227,4.3361 14.131092,5.54362 12.207168,2.98517 25.30814,3.71791 37.17663,-0.41308 6.31156,-2.19683 12.26084,-5.84128 16.31641,-11.15299 4.51483,-5.91321 6.40722,-13.69968 5.36996,-21.06676 -1.16343,-8.26319 -5.77643,-15.69105 -11.35953,-21.8929 -2.25403,-2.50384 -4.69143,-4.861 -7.43532,-6.81572 -4.86674,-3.46701 -10.66829,-5.604784 -16.61963,-6.14046 -5.95133,-0.535676 -12.03726,0.530321 -17.45895,3.04241 -4.409442,2.043073 -8.355574,5.0124 -11.7726,8.46801 z"
       id="path892"
       inkscape:path-effect="#path-effect894"
       inkscape:original-d="m 78.23785,105.48121 c -3.92447,2.8224 -5.64508,6.88482 -8.46801,10.32684 -2.82294,3.44202 -6.19585,19.00166 -9.29416,28.50209 -3.09832,9.50043 15.69706,11.42863 23.5452,17.14256 7.84814,5.71392 24.78469,-0.27512 37.17663,-0.41308 12.39195,-0.13795 10.87788,-7.43506 16.31641,-11.15299 5.43854,-3.71793 3.58024,-14.04424 5.36996,-21.06676 1.78972,-7.02251 -7.57275,-14.595 -11.35953,-21.8929 -3.78677,-7.2979 -4.95661,-4.54355 -7.43532,-6.81572 -2.47871,-2.27217 -22.71879,-2.0651 -34.07858,-3.09805 -11.35979,-1.03295 -7.84814,5.6456 -11.7726,8.46801 z"
       inkscape:export-filename="E:\Hackathon\HappyDuck.png"
       inkscape:export-xdpi="800"
       inkscape:export-ydpi="800" />
    <path
       style="fill:#ff9955;stroke:#ff9955;stroke-width:0.264583px;stroke-linecap:butt;stroke-linejoin:miter;stroke-opacity:1"
       d="m 82.16205,160.83309 c -0.329942,0.66912 -0.49833,1.40371 -0.706746,2.12006 -0.208417,0.71634 -0.468403,1.43716 -0.945554,2.01067 -0.373653,0.44911 -0.868258,0.78942 -1.404216,1.02194 -0.535958,0.23252 -1.113073,0.36031 -1.693834,0.42382 -1.327167,0.14512 -2.684301,-0.0388 -3.994281,0.21881 -0.65499,0.12883 -1.29763,0.37308 -1.819816,0.78893 -0.522187,0.41585 -0.915401,1.01529 -1.001623,1.67724 -0.06793,0.52149 0.05815,1.06236 0.330189,1.51242 0.272042,0.45006 0.685698,0.80925 1.159798,1.03683 0.4741,0.22758 1.006551,0.32555 1.532056,0.30537 0.525506,-0.0202 1.043892,-0.15664 1.521767,-0.37618 0.765124,-0.35151 1.416817,-0.90609 2.141086,-1.33551 0.362135,-0.21472 0.745672,-0.39927 1.15348,-0.50385 0.407807,-0.10458 0.842122,-0.12665 1.249254,-0.0195 0.436472,0.1149 0.826598,0.37473 1.138284,0.70117 0.311686,0.32644 0.548829,0.71783 0.740909,1.12626 0.384159,0.81686 0.595913,1.70894 1.012317,2.50984 0.407872,0.7845 1.035864,1.48555 1.855099,1.81819 0.409618,0.16631 0.861105,0.23614 1.299384,0.17817 0.438279,-0.058 0.861816,-0.24659 1.182797,-0.5506 0.401228,-0.38001 0.624046,-0.91759 0.721327,-1.46159 0.09728,-0.54399 0.07956,-1.10108 0.06521,-1.65352 -0.01434,-0.55243 -0.0245,-1.11051 0.08735,-1.6517 0.111847,-0.54118 0.357364,-1.07136 0.778405,-1.42929 0.387145,-0.32912 0.899703,-0.49038 1.407623,-0.5051 0.507921,-0.0147 1.012349,0.10924 1.483897,0.29856 1.668672,0.66995 2.903142,2.10863 4.46277,3.00354 0.779814,0.44745 1.663711,0.75941 2.561916,0.72003 0.449103,-0.0197 0.896543,-0.12853 1.294283,-0.33801 0.397741,-0.20949 0.744321,-0.5214 0.975191,-0.90712 0.2693,-0.44992 0.37414,-0.99108 0.32009,-1.51265 -0.0541,-0.52157 -0.26291,-1.02245 -0.57288,-1.44539 -0.619934,-0.84588 -1.615324,-1.35672 -2.63873,-1.58577 -1.512597,-0.33854 -3.091419,-0.11924 -4.634879,-0.26167 -0.77173,-0.0712 -1.54468,-0.23691 -2.233377,-0.59235 -0.688696,-0.35544 -1.290174,-0.91393 -1.599754,-1.62442 -0.279777,-0.64209 -0.308182,-1.36162 -0.326614,-2.06178 -0.01843,-0.70016 -0.0345,-1.41801 -0.292996,-2.06896 -0.257082,-0.64738 -0.750842,-1.19379 -1.358157,-1.53491 -0.607315,-0.34113 -1.323046,-0.4785 -2.016162,-0.40933 -0.693116,0.0692 -1.361677,0.3416 -1.919984,0.75812 -0.558307,0.41652 -1.006821,0.97446 -1.314877,1.5992 z"
       id="path896"
       inkscape:path-effect="#path-effect898"
       inkscape:original-d="m 82.16205,160.83309 c -2.20333,0.13742 -1.10127,2.75408 -1.6523,4.13073 -0.55103,1.37665 -2.0651,0.96411 -3.09805,1.44576 -1.03295,0.48165 -4.54355,1.79025 -6.81572,2.68498 -2.27217,0.89473 3.02947,1.65256 4.54381,2.47844 1.51434,0.82588 3.02948,-1.23895 4.54382,-1.85883 1.51433,-0.61987 1.92794,2.89178 2.89151,4.33727 0.96358,1.4455 2.89178,0.96411 4.33728,1.44576 1.44549,0.48166 1.10179,-4.13047 1.65229,-6.1961 0.5505,-2.06564 1.92794,-0.13743 2.89152,-0.20654 0.96357,-0.0691 6.19637,1.65256 9.29416,2.47844 3.09778,0.82588 -1.92742,-3.02894 -2.89152,-4.54381 -0.9641,-1.51487 -5.64508,-1.65203 -8.46801,-2.47844 -2.82294,-0.82641 -0.41281,-2.75356 -0.61961,-4.13074 -0.20681,-1.37718 -4.40586,0.27565 -6.60918,0.41308 z"
       inkscape:export-filename="E:\Hackathon\HappyDuck.png"
       inkscape:export-xdpi="800"
       inkscape:export-ydpi="800" />
    <path
       style="fill:#ff9955;stroke:#ff9955;stroke-width:0.264583px;stroke-linecap:butt;stroke-linejoin:miter;stroke-opacity:1"
       d="m 116.90892,161.63182 c -0.32994,0.66912 -0.49833,1.40371 -0.70675,2.12006 -0.20841,0.71634 -0.4684,1.43716 -0.94555,2.01067 -0.37365,0.44911 -0.86826,0.78942 -1.40422,1.02194 -0.53595,0.23252 -1.11307,0.36031 -1.69383,0.42382 -1.32717,0.14512 -2.6843,-0.0388 -3.99428,0.21881 -0.65499,0.12883 -1.29763,0.37308 -1.81982,0.78893 -0.52218,0.41585 -0.9154,1.01529 -1.00162,1.67724 -0.0679,0.52149 0.0581,1.06236 0.33019,1.51242 0.27204,0.45006 0.6857,0.80925 1.1598,1.03683 0.4741,0.22758 1.00655,0.32555 1.53205,0.30537 0.52551,-0.0202 1.0439,-0.15664 1.52177,-0.37618 0.76512,-0.35151 1.41681,-0.90608 2.14108,-1.33551 0.36214,-0.21472 0.74567,-0.39927 1.15348,-0.50385 0.4078,-0.10458 0.84212,-0.12665 1.24925,-0.0195 0.43647,0.1149 0.8266,0.37473 1.13829,0.70117 0.31168,0.32643 0.54883,0.71783 0.74091,1.12626 0.38416,0.81686 0.59591,1.70893 1.01232,2.50984 0.40787,0.78449 1.03586,1.48555 1.8551,1.81818 0.40961,0.16632 0.8611,0.23614 1.29937,0.17818 0.43828,-0.058 0.86182,-0.2466 1.1828,-0.5506 0.40123,-0.38001 0.62405,-0.91759 0.72133,-1.46158 0.0973,-0.544 0.0796,-1.10109 0.0652,-1.65353 -0.0143,-0.55243 -0.0245,-1.11051 0.0873,-1.6517 0.11185,-0.54118 0.35737,-1.07136 0.77841,-1.42929 0.38714,-0.32912 0.8997,-0.49038 1.40762,-0.50509 0.50792,-0.0147 1.01234,0.10923 1.48389,0.29855 1.66867,0.66995 2.90314,2.10863 4.46277,3.00354 0.77981,0.44745 1.66371,0.75941 2.56192,0.72003 0.4491,-0.0197 0.89654,-0.12853 1.29428,-0.33801 0.39774,-0.20949 0.74432,-0.5214 0.97519,-0.90712 0.2693,-0.44992 0.37414,-0.99108 0.32009,-1.51265 -0.054,-0.52157 -0.26291,-1.02245 -0.57288,-1.44539 -0.61993,-0.84588 -1.61532,-1.35672 -2.63873,-1.58577 -1.51259,-0.33854 -3.09141,-0.11924 -4.63487,-0.26168 -0.77173,-0.0712 -1.54468,-0.23691 -2.23338,-0.59234 -0.68869,-0.35544 -1.29017,-0.91393 -1.59975,-1.62442 -0.27978,-0.64209 -0.30818,-1.36162 -0.32662,-2.06178 -0.0184,-0.70016 -0.0345,-1.41801 -0.293,-2.06896 -0.25708,-0.64738 -0.75084,-1.19379 -1.35816,-1.53491 -0.60731,-0.34112 -1.32304,-0.4785 -2.01615,-0.40932 -0.69312,0.0692 -1.36168,0.34159 -1.91998,0.75811 -0.55831,0.41652 -1.00682,0.97446 -1.31488,1.5992 z"
       id="path896-8"
       inkscape:path-effect="#path-effect898-3"
       inkscape:original-d="m 116.90892,161.63182 c -2.20333,0.13742 -1.10127,2.75408 -1.6523,4.13073 -0.55103,1.37665 -2.0651,0.96411 -3.09805,1.44576 -1.03295,0.48165 -4.54355,1.79025 -6.81572,2.68498 -2.27217,0.89473 3.02947,1.65256 4.54381,2.47844 1.51434,0.82588 3.02947,-1.23895 4.54381,-1.85883 1.51434,-0.61987 1.92795,2.89178 2.89152,4.33727 0.96357,1.4455 2.89178,0.96411 4.33727,1.44576 1.4455,0.48166 1.1018,-4.13047 1.6523,-6.1961 0.5505,-2.06564 1.92794,-0.13743 2.89151,-0.20654 0.96358,-0.0691 6.19637,1.65256 9.29416,2.47844 3.09779,0.82588 -1.92741,-3.02894 -2.89152,-4.54381 -0.9641,-1.51487 -5.64507,-1.65203 -8.468,-2.47844 -2.82294,-0.82641 -0.41281,-2.75356 -0.61962,-4.13074 -0.2068,-1.37718 -4.40585,0.27565 -6.60917,0.41308 z"
       inkscape:export-filename="E:\Hackathon\HappyDuck.png"
       inkscape:export-xdpi="800"
       inkscape:export-ydpi="800" />
    <path
       style="fill:#ffdd55;stroke:#ffdd55;stroke-width:0.264583px;stroke-linecap:butt;stroke-linejoin:miter;stroke-opacity:1"
       d="m 86.49932,104.44852 c -2.176619,0.55919 -4.400687,0.9841 -6.647557,1.02817 -2.246871,0.0441 -4.525286,-0.30398 -6.570803,-1.2347 -3.493388,-1.5895 -6.075887,-4.793695 -7.534053,-8.343909 C 64.288742,92.347866 63.8561,88.458244 63.78027,84.62099 63.65228,78.144256 64.525602,71.570622 67.08486,65.6196 c 2.436701,-5.666041 6.380504,-10.660866 11.2593,-14.43431 6.734145,-5.208441 15.363884,-8.061771 23.84885,-7.367519 8.48496,0.694253 16.7062,5.064596 21.61861,12.017639 2.42283,3.429276 4.01276,7.362374 5.64737,11.22994 2.688,6.359944 5.5861,12.764799 6.40264,19.621 0.39285,3.298592 0.27465,6.736693 -0.99632,9.805843 -0.63548,1.534575 -1.55768,2.959151 -2.75896,4.106187 -1.20127,1.14705 -2.68614,2.01028 -4.29966,2.40439 -2.10039,0.51303 -4.32004,0.22132 -6.40902,-0.33634 -2.08899,-0.55765 -4.10141,-1.37539 -6.18972,-1.93557 -5.44317,-1.460101 -11.25161,-1.117412 -16.72949,0.20654 -4.045287,0.97771 -7.948277,2.47555 -11.97914,3.51112 z"
       id="path888"
       inkscape:path-effect="#path-effect890"
       inkscape:original-d="m 86.49932,104.44852 c -3.99331,1.17012 -8.81197,-0.13742 -13.21836,-0.20653 -4.40638,-0.0691 -6.33353,-13.08041 -9.50069,-19.621 -3.16717,-6.5406 2.20332,-12.66733 3.30459,-19.00139 1.10126,-6.33407 6.92229,-7.48064 11.2593,-14.43431 4.33701,-6.95367 31.28553,2.51617 45.46746,4.65012 14.18193,2.13395 3.37573,5.92909 5.64737,11.22994 2.27164,5.30085 4.26869,13.08094 6.40264,19.621 2.13395,6.54007 -5.36969,10.87788 -8.05494,16.31642 -2.68524,5.43854 -8.3989,-1.51434 -12.59874,-2.27191 -4.19985,-0.75756 -11.15273,0.13796 -16.72949,0.20654 -5.57676,0.0686 -7.98583,2.34101 -11.97914,3.51112 z"
       sodipodi:nodetypes="ssssssssssss"
       inkscape:export-filename="E:\Hackathon\HappyDuck.png"
       inkscape:export-xdpi="800"
       inkscape:export-ydpi="800" />
    <path
       style="fill:#ffd42a;stroke:#ffd42a;stroke-width:0.264583px;stroke-linecap:butt;stroke-linejoin:miter;stroke-opacity:1"
       d="m 78.23785,105.48121 c -5.094445,2.13416 -10.189023,4.26837 -14.732945,7.53862 -4.543922,3.27024 -8.536889,7.67627 -10.292427,12.15142 -1.755537,4.47516 -1.273627,9.01888 0.413265,11.91032 1.686892,2.89145 4.578353,4.13065 6.919059,4.54363 2.340705,0.41297 4.130647,-9e-5 6.092684,-1.13605 1.962038,-1.13595 4.096207,-2.99474 6.333677,-6.2649 2.23747,-3.27015 4.578174,-7.95156 5.473203,-12.97725 0.895029,-5.0257 0.344277,-10.39555 -0.206516,-15.76579 0,0 0,0 0,0"
       id="path1214"
       inkscape:path-effect="#path-effect1216"
       inkscape:original-d="m 78.23785,105.48121 c -5.09431,2.13448 -10.18889,4.26869 -15.28373,6.40264 -3.99286,4.40647 -7.98583,8.8125 -11.97914,13.21836 0.4822,4.54417 0.96411,9.08789 1.44576,13.63143 2.89184,1.23951 5.7833,2.47871 8.67455,3.71766 1.79029,-0.41281 3.58023,-0.82588 5.36996,-1.23922 2.13452,-1.8586 4.26869,-3.71739 6.40264,-5.57649 2.34106,-4.68133 4.68177,-9.36274 7.02225,-14.04451 -0.55051,-5.3698 -1.10126,-10.73965 -1.65229,-16.10987 0,0 2.6e-4,2.6e-4 0,0"
       inkscape:export-filename="E:\Hackathon\HappyDuck.png"
       inkscape:export-xdpi="800"
       inkscape:export-ydpi="800" />
    <path
       style="fill:#ffd42a;stroke:#ffd42a;stroke-width:0.264583px;stroke-linecap:butt;stroke-linejoin:miter;stroke-opacity:1"
       d="m 127.47286,103.2297 c 5.09444,2.13416 10.18902,4.26837 14.73294,7.53862 4.54393,3.27024 8.53689,7.67627 10.29243,12.15142 1.75554,4.47516 1.27363,9.01888 -0.41326,11.91032 -1.68689,2.89145 -4.57836,4.13065 -6.91906,4.54363 -2.34071,0.41297 -4.13066,-9e-5 -6.09269,-1.13605 -1.96203,-1.13595 -4.0962,-2.99474 -6.33367,-6.2649 -2.23747,-3.27015 -4.57818,-7.95156 -5.47321,-12.97725 -0.89503,-5.0257 -0.34427,-10.39555 0.20652,-15.76579 0,0 0,0 0,0"
       id="path1214-8"
       inkscape:path-effect="#path-effect1216-4"
       inkscape:original-d="m 127.47286,103.2297 c 5.09431,2.13448 10.18889,4.26869 15.28373,6.40264 3.99286,4.40647 7.98583,8.8125 11.97914,13.21836 -0.4822,4.54417 -0.96411,9.08789 -1.44576,13.63143 -2.89184,1.23951 -5.7833,2.47871 -8.67455,3.71766 -1.79029,-0.41281 -3.58024,-0.82588 -5.36996,-1.23922 -2.13452,-1.8586 -4.26869,-3.71739 -6.40264,-5.57649 -2.34106,-4.68133 -4.68177,-9.36274 -7.02225,-14.04451 0.55051,-5.3698 1.10126,-10.73965 1.65229,-16.10987 0,0 -2.6e-4,2.6e-4 0,0"
       inkscape:export-filename="E:\Hackathon\HappyDuck.png"
       inkscape:export-xdpi="800"
       inkscape:export-ydpi="800" />
    <path
       id="path1558"
       style="fill:#2b0000;stroke:#2b0000;stroke-width:0.339;stroke-linecap:round;stroke-linejoin:round"
       d="m 87.11893,81.52293 a 6.0928369,6.1961055 0 0 1 -6.09283,6.19611 6.0928369,6.1961055 0 0 1 -6.09284,-6.19611 6.0928369,6.1961055 0 0 1 6.09284,-6.1961 6.0928369,6.1961055 0 0 1 6.09283,6.1961 z"
       inkscape:export-filename="E:\Hackathon\HappyDuck.png"
       inkscape:export-xdpi="800"
       inkscape:export-ydpi="800" />
    <path
       id="path1558-3"
       style="fill:#2b0000;stroke:#2b0000;stroke-width:0.339;stroke-linecap:round;stroke-linejoin:round"
       d="m 124.39883,80.07718 a 6.0928369,6.1961055 0 0 1 -6.09283,6.1961 6.0928369,6.1961055 0 0 1 -6.09284,-6.1961 6.0928369,6.1961055 0 0 1 6.09284,-6.19611 6.0928369,6.1961055 0 0 1 6.09283,6.19611 z"
       inkscape:export-filename="E:\Hackathon\HappyDuck.png"
       inkscape:export-xdpi="800"
       inkscape:export-ydpi="800" />
    <path
       style="fill:#ff9955;stroke:#ff9955;stroke-width:0.264583px;stroke-linecap:butt;stroke-linejoin:miter;stroke-opacity:1"
       d="m 89.735212,91.72945 c 0.895148,-0.154995 2.650719,0.189233 4.079111,-0.327137 1.428392,-0.516371 2.529898,-1.893254 3.855295,-2.788293 1.325397,-0.89504 2.874392,-1.308105 4.389072,-1.256384 1.51469,0.05172 2.99484,0.568051 4.23405,1.273795 1.23921,0.705745 2.23746,1.600722 3.54552,1.962023 1.30806,0.361301 2.9259,0.189188 3.80365,0.240998 0.87774,0.05181 1.01543,0.327179 0.70553,0.877801 -0.3099,0.550621 -1.06719,1.376752 -2.56454,2.306146 -1.49735,0.929394 -3.73474,1.96204 -6.98768,2.443998 -3.25295,0.481959 -7.521296,0.413114 -10.361184,-0.223602 -2.839887,-0.636717 -4.251188,-1.841486 -4.939792,-2.770908 -0.688603,-0.929422 -0.65418,-1.583441 0.240968,-1.738437 z"
       id="path2179"
       inkscape:path-effect="#path-effect2181"
       inkscape:original-d="m 88.8745,91.23017 c 1.75582,0.34449 3.51139,0.68872 5.26669,1.03268 1.10181,-1.37668 2.20332,-2.75356 3.30459,-4.13074 1.54932,-0.41281 3.09831,-0.82588 4.64707,-1.23922 1.48048,0.51662 2.96063,1.03295 4.44055,1.54903 0.99854,0.89527 1.99678,1.79025 2.99478,2.68498 1.61817,-0.17186 3.23601,-0.34397 4.85362,-0.51635 0.13796,0.27566 0.27564,0.55103 0.41307,0.82615 -0.75705,0.82643 -1.51434,1.65256 -2.27191,2.47844 -2.23726,1.03297 -4.47465,2.06562 -6.71244,3.09806 -4.26825,-0.0686 -8.5366,-0.13743 -12.80529,-0.20654 -1.4111,-1.20456 -2.8224,-2.40933 -4.234,-3.61439 0.0347,-0.65379 0.0691,-1.30781 0.10327,-1.9621 z"
       sodipodi:nodetypes="ccccccccccccc"
       inkscape:export-filename="E:\Hackathon\HappyDuck.png"
       inkscape:export-xdpi="800"
       inkscape:export-ydpi="800" />
    <path
       style="fill:#ffffff;stroke:#ffffff;stroke-width:0.264583px;stroke-linecap:butt;stroke-linejoin:miter;stroke-opacity:1"
       d="m 119.89753,75.304879 c -0.49917,0.170403 -0.71824,0.803261 -0.70594,1.314492 0.0123,0.511232 0.2557,0.900676 0.68172,1.192662 0.42603,0.291985 1.03453,0.486705 1.43597,0.365009 0.40144,-0.121696 0.59616,-0.559816 0.66922,-1.022211 0.0731,-0.462395 0.0244,-0.949197 -0.38927,-1.338735 -0.41365,-0.389539 -1.19254,-0.68162 -1.6917,-0.511217 z"
       id="path2520"
       inkscape:path-effect="#path-effect2522"
       inkscape:original-d="m 119.61748,74.84227 c -0.21881,0.63312 -0.43787,1.26598 -0.6572,1.89857 0.24367,0.38972 0.48708,0.77916 0.73022,1.16835 0.60879,0.19499 1.21729,0.38971 1.82554,0.58417 0.195,-0.43787 0.38972,-0.87599 0.58418,-1.31439 -0.0484,-0.48656 -0.0971,-0.97336 -0.14605,-1.46044 -0.77865,-0.29182 -1.55753,-0.58391 -2.33669,-0.87626 z"
       inkscape:export-filename="E:\Hackathon\HappyDuck.png"
       inkscape:export-xdpi="800"
       inkscape:export-ydpi="800" />
    <path
       style="fill:#ffffff;stroke:#ffffff;stroke-width:0.264583px;stroke-linecap:butt;stroke-linejoin:miter;stroke-opacity:1"
       d="m 82.970074,77.067915 c -0.499168,0.170396 -0.718234,0.803254 -0.705939,1.314487 0.0123,0.511232 0.255695,0.900678 0.681726,1.192663 0.42603,0.291985 1.034531,0.486704 1.435967,0.365007 0.401437,-0.121696 0.596159,-0.559816 0.669223,-1.022211 0.07306,-0.462395 0.02438,-0.949197 -0.389273,-1.338731 -0.413654,-0.389533 -1.192535,-0.681612 -1.691704,-0.511215 z"
       id="path2520-0"
       inkscape:path-effect="#path-effect2522-1"
       inkscape:original-d="m 82.69002,76.60531 c -0.2188,0.63311 -0.43786,1.26597 -0.65719,1.89856 0.24367,0.38972 0.48708,0.77916 0.73021,1.16835 0.6088,0.19499 1.2173,0.38971 1.82555,0.58417 0.195,-0.43787 0.38972,-0.87599 0.58418,-1.31439 -0.0484,-0.48656 -0.0971,-0.97336 -0.14605,-1.46043 -0.77865,-0.29183 -1.55753,-0.58391 -2.3367,-0.87626 z"
       inkscape:export-filename="E:\Hackathon\HappyDuck.png"
       inkscape:export-xdpi="800"
       inkscape:export-ydpi="800" />
    <path
       id="path2818"
       style="fill:#d77c3f;fill-opacity:1;stroke:none;stroke-width:4.16663;stroke-linecap:round;stroke-linejoin:round"
       d="m 99.26211,90.36978 a 0.69370712,0.69370718 0 0 1 -0.69371,0.69371 0.69370712,0.69370718 0 0 1 -0.69371,-0.69371 0.69370712,0.69370718 0 0 1 0.69371,-0.69371 0.69370712,0.69370718 0 0 1 0.69371,0.69371 z"
       inkscape:export-filename="E:\Hackathon\HappyDuck.png"
       inkscape:export-xdpi="800"
       inkscape:export-ydpi="800" />
    <path
       id="path2818-8"
       style="fill:#d77c3f;fill-opacity:1;stroke:none;stroke-width:4.16663;stroke-linecap:round;stroke-linejoin:round"
       d="m 104.62921,90.26025 a 0.69370712,0.69370718 0 0 1 -0.6937,0.69371 0.69370712,0.69370718 0 0 1 -0.69371,-0.69371 0.69370712,0.69370718 0 0 1 0.69371,-0.69371 0.69370712,0.69370718 0 0 1 0.6937,0.69371 z"
       inkscape:export-filename="E:\Hackathon\HappyDuck.png"
       inkscape:export-xdpi="800"
       inkscape:export-ydpi="800" />
  </g>
</svg>
