<?xml version="1.0" encoding="UTF-8" standalone="no"?>
<!-- Created with Inkscape (http://www.inkscape.org/) -->

<svg
   width="101.76428mm"
   height="133.41658mm"
   viewBox="0 0 101.76428 133.41658"
   version="1.1"
   id="svg14095"
   inkscape:version="1.1.2 (b8e25be833, 2022-02-05)"
   sodipodi:docname="SadDuck.svg"
   xmlns:inkscape="http://www.inkscape.org/namespaces/inkscape"
   xmlns:sodipodi="http://sodipodi.sourceforge.net/DTD/sodipodi-0.dtd"
   xmlns="http://www.w3.org/2000/svg"
   xmlns:svg="http://www.w3.org/2000/svg">
  <sodipodi:namedview
     id="namedview14097"
     pagecolor="#ffffff"
     bordercolor="#666666"
     borderopacity="1.0"
     inkscape:pageshadow="2"
     inkscape:pageopacity="0.0"
     inkscape:pagecheckerboard="0"
     inkscape:document-units="mm"
     showgrid="false"
     fit-margin-top="0"
     fit-margin-left="0"
     fit-margin-right="0"
     fit-margin-bottom="0"
     inkscape:zoom="0.64052329"
     inkscape:cx="224.81618"
     inkscape:cy="593.26492"
     inkscape:window-width="1920"
     inkscape:window-height="1057"
     inkscape:window-x="-8"
     inkscape:window-y="-8"
     inkscape:window-maximized="1"
     inkscape:current-layer="layer1" />
  <defs
     id="defs14092">
    <inkscape:path-effect
       effect="spiro"
       id="path-effect894-8-5"
       is_visible="true"
       lpeversion="1" />
    <inkscape:path-effect
       effect="spiro"
       id="path-effect898-1-8"
       is_visible="true"
       lpeversion="1" />
    <inkscape:path-effect
       effect="spiro"
       id="path-effect898-3-3-9"
       is_visible="true"
       lpeversion="1" />
    <inkscape:path-effect
       effect="spiro"
       id="path-effect890-0-0"
       is_visible="true"
       lpeversion="1" />
    <inkscape:path-effect
       effect="bspline"
       id="path-effect1216-9-9"
       is_visible="true"
       lpeversion="1"
       weight="33.333333"
       steps="2"
       helper_size="0"
       apply_no_weight="true"
       apply_with_weight="true"
       only_selected="false" />
    <inkscape:path-effect
       effect="bspline"
       id="path-effect1216-4-7-3"
       is_visible="true"
       lpeversion="1"
       weight="33.333333"
       steps="2"
       helper_size="0"
       apply_no_weight="true"
       apply_with_weight="true"
       only_selected="false" />
    <inkscape:path-effect
       effect="bspline"
       id="path-effect2181-2-9"
       is_visible="true"
       lpeversion="1"
       weight="33.333333"
       steps="2"
       helper_size="0"
       apply_no_weight="true"
       apply_with_weight="true"
       only_selected="false" />
    <inkscape:path-effect
       effect="bspline"
       id="path-effect2522-8-4"
       is_visible="true"
       lpeversion="1"
       weight="33.333333"
       steps="2"
       helper_size="0"
       apply_no_weight="true"
       apply_with_weight="true"
       only_selected="false" />
    <inkscape:path-effect
       effect="bspline"
       id="path-effect2522-1-09-3"
       is_visible="true"
       lpeversion="1"
       weight="33.333333"
       steps="2"
       helper_size="0"
       apply_no_weight="true"
       apply_with_weight="true"
       only_selected="false" />
    <inkscape:path-effect
       effect="spiro"
       id="path-effect9951-6"
       is_visible="true"
       lpeversion="1" />
    <inkscape:path-effect
       effect="spiro"
       id="path-effect9951-3-3"
       is_visible="true"
       lpeversion="1" />
    <inkscape:path-effect
       effect="bspline"
       id="path-effect11056"
       is_visible="true"
       lpeversion="1"
       weight="33.333333"
       steps="2"
       helper_size="0"
       apply_no_weight="true"
       apply_with_weight="true"
       only_selected="false" />
  </defs>
  <g
     inkscape:label="Layer 1"
     inkscape:groupmode="layer"
     id="layer1"
     transform="translate(-11.491987,8.8779721)">
    <path
       style="fill:#ffdd55;stroke:#ffe680;stroke-width:0.264583px;stroke-linecap:butt;stroke-linejoin:miter;stroke-opacity:1"
       d="m 37.75661,53.02085 c -3.132928,3.168309 -5.828082,6.737376 -8.468,10.32684 -3.077253,4.184102 -6.122243,8.463415 -8.077904,13.275024 -1.955661,4.81161 -2.752435,10.265579 -1.216256,15.227066 1.503498,4.855936 5.133812,8.85674 9.414107,11.59894 4.280295,2.74221 9.193227,4.3361 14.131093,5.54362 12.207168,2.98517 25.308138,3.71791 37.17663,-0.41308 6.311562,-2.19683 12.26084,-5.84128 16.31641,-11.15299 4.51483,-5.913211 6.40722,-13.699682 5.36996,-21.06676 C 101.23922,68.096317 96.626235,60.668454 91.04313,54.46661 88.789093,51.962772 86.351696,49.605608 83.6078,47.65089 78.741057,44.183882 72.939501,42.04611 66.988167,41.510433 61.036833,40.974756 54.950902,42.040752 49.52921,44.55284 c -4.409442,2.043072 -8.355576,5.012396 -11.7726,8.46801 z"
       id="path892-8-0"
       inkscape:path-effect="#path-effect894-8-5"
       inkscape:original-d="m 37.75661,53.02085 c -3.92446,2.8224 -5.64507,6.88482 -8.468,10.32684 -2.82294,3.44202 -6.19585,19.00166 -9.29416,28.50209 -3.09832,9.50043 15.69706,11.42863 23.5452,17.14256 7.84813,5.71392 24.78468,-0.27512 37.17663,-0.41308 12.39195,-0.13795 10.87788,-7.43506 16.31641,-11.15299 5.43854,-3.71793 3.58024,-14.04424 5.36996,-21.06676 C 104.19237,69.337 94.8299,61.76451 91.04313,54.46661 87.25635,47.1687 86.08651,49.92306 83.6078,47.65089 81.12909,45.37872 60.88901,45.58578 49.52921,44.55284 c -11.35979,-1.03295 -7.84813,5.6456 -11.7726,8.46801 z"
       inkscape:export-filename="E:\Hackathon\SadDuck.png"
       inkscape:export-xdpi="800"
       inkscape:export-ydpi="800" />
    <path
       style="fill:#ff9955;stroke:#ff9955;stroke-width:0.264583px;stroke-linecap:butt;stroke-linejoin:miter;stroke-opacity:1"
       d="m 41.68082,108.37273 c -0.329942,0.66912 -0.498331,1.40371 -0.706747,2.12006 -0.208416,0.71634 -0.468402,1.43716 -0.945553,2.01067 -0.373653,0.44911 -0.868258,0.78942 -1.404216,1.02194 -0.535958,0.23252 -1.113073,0.36031 -1.693834,0.42382 -1.327167,0.14512 -2.684301,-0.0388 -3.994281,0.21881 -0.65499,0.12883 -1.29763,0.37308 -1.819816,0.78893 -0.522187,0.41585 -0.915401,1.01529 -1.001623,1.67724 -0.06793,0.52149 0.05815,1.06236 0.330189,1.51242 0.272042,0.45006 0.685697,0.80925 1.159798,1.03683 0.4741,0.22758 1.006551,0.32555 1.532056,0.30537 0.525506,-0.0202 1.043892,-0.15664 1.521767,-0.37618 0.765122,-0.35151 1.416814,-0.90608 2.141081,-1.33551 0.362134,-0.21472 0.745671,-0.39927 1.153477,-0.50385 0.407807,-0.10458 0.84212,-0.12665 1.249252,-0.0195 0.436473,0.1149 0.826599,0.37473 1.138287,0.70117 0.311687,0.32643 0.548831,0.71783 0.740911,1.12626 0.384161,0.81686 0.595917,1.70893 1.012322,2.50984 0.407872,0.78449 1.035862,1.48555 1.855095,1.81818 0.409617,0.16632 0.861102,0.23614 1.29938,0.17818 0.438278,-0.058 0.861814,-0.2466 1.182795,-0.5506 0.401229,-0.38001 0.624048,-0.91759 0.721331,-1.46158 0.09728,-0.544 0.07956,-1.10109 0.06522,-1.65353 -0.01434,-0.55243 -0.0245,-1.11051 0.08735,-1.6517 0.111847,-0.54118 0.357366,-1.07136 0.778407,-1.42929 0.387144,-0.32912 0.8997,-0.49038 1.407618,-0.50509 0.507919,-0.0147 1.012346,0.10923 1.483892,0.29855 1.668672,0.66995 2.903143,2.10863 4.46277,3.00353 0.779814,0.44746 1.66371,0.75942 2.561916,0.72004 0.449102,-0.0197 0.896542,-0.12853 1.294283,-0.33801 0.39774,-0.20949 0.744316,-0.5214 0.975191,-0.90712 0.269305,-0.44992 0.37414,-0.99108 0.320091,-1.51265 -0.05405,-0.52157 -0.262911,-1.02245 -0.572877,-1.44539 -0.619931,-0.84587 -1.61532,-1.35672 -2.638724,-1.58577 -1.512598,-0.33854 -3.091422,-0.11924 -4.634884,-0.26167 -0.771731,-0.0712 -1.544682,-0.23691 -2.233379,-0.59235 -0.688698,-0.35544 -1.290177,-0.91393 -1.599757,-1.62442 -0.279777,-0.64209 -0.308182,-1.36162 -0.326614,-2.06178 -0.01843,-0.70016 -0.0345,-1.41801 -0.292996,-2.06896 -0.257082,-0.64738 -0.750841,-1.19379 -1.358156,-1.53491 -0.607314,-0.34112 -1.323043,-0.4785 -2.016158,-0.40932 -0.693115,0.0692 -1.361675,0.34159 -1.919981,0.75811 -0.558306,0.41652 -1.00682,0.97446 -1.314875,1.5992 z"
       id="path896-4-4"
       inkscape:path-effect="#path-effect898-1-8"
       inkscape:original-d="m 41.68082,108.37273 c -2.20333,0.13742 -1.10127,2.75408 -1.6523,4.13073 -0.55103,1.37665 -2.0651,0.96411 -3.09805,1.44576 -1.03295,0.48165 -4.54355,1.79025 -6.81572,2.68498 -2.27217,0.89473 3.02947,1.65256 4.54381,2.47844 1.51434,0.82588 3.02947,-1.23895 4.54381,-1.85883 1.51434,-0.61987 1.92794,2.89178 2.89152,4.33727 0.96357,1.4455 2.89178,0.96411 4.33727,1.44576 1.4455,0.48166 1.1018,-4.13047 1.6523,-6.1961 0.5505,-2.06564 1.92794,-0.13743 2.89151,-0.20654 0.96358,-0.0691 6.19637,1.65256 9.29416,2.47844 3.09779,0.82588 -1.92741,-3.02894 -2.89151,-4.54381 -0.96411,-1.51487 -5.64508,-1.65203 -8.46802,-2.47844 -2.82293,-0.82641 -0.4128,-2.75356 -0.61961,-4.13074 -0.2068,-1.37718 -4.40585,0.27565 -6.60917,0.41308 z"
       inkscape:export-filename="E:\Hackathon\SadDuck.png"
       inkscape:export-xdpi="800"
       inkscape:export-ydpi="800" />
    <path
       style="fill:#ff9955;stroke:#ff9955;stroke-width:0.264583px;stroke-linecap:butt;stroke-linejoin:miter;stroke-opacity:1"
       d="m 76.42769,109.17146 c -0.329942,0.66912 -0.498331,1.40371 -0.706747,2.12006 -0.208416,0.71634 -0.468402,1.43716 -0.945553,2.01067 -0.373653,0.44911 -0.868258,0.78942 -1.404216,1.02194 -0.535958,0.23252 -1.113073,0.36031 -1.693834,0.42382 -1.327167,0.14512 -2.684301,-0.0388 -3.994281,0.21881 -0.65499,0.12883 -1.29763,0.37308 -1.819816,0.78893 -0.522187,0.41585 -0.915401,1.01529 -1.001623,1.67724 -0.06793,0.52149 0.05815,1.06236 0.330189,1.51242 0.272042,0.45006 0.685697,0.80925 1.159798,1.03683 0.4741,0.22758 1.006551,0.32555 1.532056,0.30537 0.525506,-0.0202 1.043892,-0.15664 1.521767,-0.37618 0.765122,-0.35151 1.416814,-0.90608 2.141081,-1.33551 0.362134,-0.21472 0.745671,-0.39927 1.153477,-0.50385 0.407807,-0.10458 0.84212,-0.12665 1.249252,-0.0195 0.436473,0.1149 0.826599,0.37473 1.138287,0.70117 0.311687,0.32643 0.548831,0.71783 0.740911,1.12626 0.384161,0.81686 0.595917,1.70893 1.012322,2.50984 0.407872,0.78449 1.035862,1.48555 1.855095,1.81818 0.409617,0.16632 0.861102,0.23614 1.29938,0.17818 0.438278,-0.058 0.861814,-0.2466 1.182795,-0.5506 0.401229,-0.38001 0.624049,-0.91759 0.721331,-1.46158 0.09728,-0.544 0.07956,-1.10109 0.06522,-1.65353 -0.01434,-0.55243 -0.0245,-1.11051 0.08735,-1.6517 0.111847,-0.54118 0.357365,-1.07136 0.778406,-1.42929 0.387145,-0.32912 0.899703,-0.49038 1.407623,-0.5051 0.507921,-0.0147 1.012349,0.10924 1.483897,0.29856 1.66867,0.66995 2.903139,2.10863 4.462765,3.00353 0.779813,0.44746 1.663708,0.75942 2.561913,0.72004 0.449102,-0.0197 0.896542,-0.12853 1.294282,-0.33801 0.39774,-0.20949 0.744316,-0.5214 0.97519,-0.90712 0.269305,-0.44992 0.374139,-0.99108 0.32009,-1.51265 -0.05405,-0.52157 -0.262913,-1.02245 -0.57288,-1.44539 -0.619934,-0.84588 -1.615324,-1.35672 -2.63873,-1.58577 -1.512594,-0.33854 -3.091415,-0.11924 -4.634873,-0.26168 -0.771729,-0.0712 -1.544678,-0.23691 -2.233373,-0.59234 -0.688696,-0.35544 -1.290173,-0.91393 -1.599754,-1.62442 -0.279778,-0.64209 -0.308185,-1.36162 -0.326619,-2.06178 -0.01843,-0.70016 -0.0345,-1.41801 -0.293001,-2.06896 -0.257083,-0.64738 -0.750843,-1.19379 -1.358157,-1.53491 -0.607314,-0.34112 -1.323043,-0.4785 -2.016158,-0.40932 -0.693114,0.0692 -1.361674,0.34159 -1.91998,0.75811 -0.558306,0.41652 -1.006819,0.97446 -1.314875,1.5992 z"
       id="path896-8-6-7"
       inkscape:path-effect="#path-effect898-3-3-9"
       inkscape:original-d="m 76.42769,109.17146 c -2.20333,0.13742 -1.10127,2.75408 -1.6523,4.13073 -0.55103,1.37665 -2.0651,0.96411 -3.09805,1.44576 -1.03295,0.48165 -4.54355,1.79025 -6.81572,2.68498 -2.27217,0.89473 3.02947,1.65256 4.54381,2.47844 1.51434,0.82588 3.02947,-1.23895 4.54381,-1.85883 1.51434,-0.61987 1.92795,2.89178 2.89152,4.33727 0.96358,1.4455 2.89178,0.96411 4.33727,1.44576 1.4455,0.48166 1.1018,-4.13047 1.6523,-6.1961 0.5505,-2.06564 1.92794,-0.13743 2.89152,-0.20654 0.96357,-0.0691 6.19637,1.65256 9.29415,2.47844 3.09779,0.82588 -1.92741,-3.02894 -2.89152,-4.54381 -0.9641,-1.51487 -5.64507,-1.65203 -8.468,-2.47844 -2.82294,-0.82641 -0.41281,-2.75356 -0.61962,-4.13074 -0.2068,-1.37718 -4.40585,0.27565 -6.60917,0.41308 z"
       inkscape:export-filename="E:\Hackathon\SadDuck.png"
       inkscape:export-xdpi="800"
       inkscape:export-ydpi="800" />
    <path
       style="fill:#ffdd55;stroke:#ffdd55;stroke-width:0.264583px;stroke-linecap:butt;stroke-linejoin:miter;stroke-opacity:1"
       d="m 46.01809,51.98816 c -2.176619,0.559194 -4.400687,0.984105 -6.647557,1.028173 -2.246871,0.04407 -4.525286,-0.303988 -6.570803,-1.234703 -3.493388,-1.5895 -6.075887,-4.793695 -7.534053,-8.343909 C 23.807511,39.887506 23.37487,35.997884 23.29904,32.16063 23.17105,25.683896 24.044373,19.110263 26.60363,13.15924 29.040329,7.4932003 32.984127,2.4983752 37.86292,-1.27507 44.597065,-6.4835155 53.226807,-9.336848 61.711771,-8.6425949 70.196736,-7.9483417 78.41798,-3.5779956 83.33039,3.37505 c 2.422825,3.4292764 4.01276,7.362374 5.64737,11.22994 2.688003,6.359944 5.586099,12.764798 6.40264,19.621 0.392846,3.29859 0.274642,6.736689 -0.996324,9.805836 -0.635484,1.534574 -1.557684,2.959149 -2.758956,4.106189 -1.201272,1.14704 -2.686143,2.010279 -4.29966,2.404385 -2.100392,0.513027 -4.320036,0.221325 -6.409022,-0.336331 -2.088987,-0.557656 -4.101406,-1.375392 -6.189718,-1.935569 -5.443169,-1.460098 -11.251614,-1.117411 -16.72949,0.20654 -4.045287,0.977708 -7.948277,2.475553 -11.97914,3.51112 z"
       id="path888-3-4"
       inkscape:path-effect="#path-effect890-0-0"
       inkscape:original-d="m 46.01809,51.98816 c -3.99331,1.17012 -8.81197,-0.13743 -13.21836,-0.20653 -4.40638,-0.0691 -6.33353,-13.08041 -9.50069,-19.621 -3.16717,-6.5406 2.20332,-12.66733 3.30459,-19.00139 1.10126,-6.33407 6.92229,-7.48064 11.25929,-14.43431 4.33701,-6.95367 31.28553,2.51617 45.46747,4.65012 14.18193,2.13395 3.37573,5.92909 5.64737,11.22994 2.27164,5.30085 4.26869,13.08094 6.40264,19.621 2.13395,6.54007 -5.36969,10.87787 -8.05494,16.31641 -2.68524,5.43855 -8.3989,-1.51434 -12.59874,-2.2719 -4.19986,-0.75757 -11.15274,0.13796 -16.72949,0.20654 -5.57676,0.0686 -7.98583,2.34101 -11.97914,3.51112 z"
       sodipodi:nodetypes="ssssssssssss"
       inkscape:export-filename="E:\Hackathon\SadDuck.png"
       inkscape:export-xdpi="800"
       inkscape:export-ydpi="800" />
    <path
       style="fill:#ffd42a;stroke:#ffd42a;stroke-width:0.264583px;stroke-linecap:butt;stroke-linejoin:miter;stroke-opacity:1"
       d="m 37.75661,53.02085 c -5.094436,2.134156 -10.189014,4.268371 -14.732935,7.538615 -4.543922,3.270244 -8.536889,7.676277 -10.292427,12.151429 -1.755537,4.475151 -1.273627,9.018871 0.413265,11.91032 1.686892,2.891448 4.578353,4.130644 6.919059,4.543622 2.340705,0.412978 4.130647,-8.5e-5 6.092684,-1.136042 1.962038,-1.135957 4.096207,-2.994748 6.333677,-6.2649 2.23747,-3.270153 4.578174,-7.951565 5.473202,-12.977257 0.895027,-5.025693 0.344271,-10.395543 -0.206525,-15.765787 0,0 0,0 0,0"
       id="path1214-2-9"
       inkscape:path-effect="#path-effect1216-9-9"
       inkscape:original-d="m 37.75661,53.02085 c -5.0943,2.13448 -10.18888,4.26869 -15.28372,6.40264 -3.99286,4.40647 -7.98583,8.8125 -11.97914,13.21836 0.4822,4.54417 0.96411,9.08789 1.44576,13.63143 2.89184,1.23951 5.7833,2.47871 8.67455,3.71766 1.79029,-0.41281 3.58023,-0.82588 5.36996,-1.23922 2.13452,-1.8586 4.26869,-3.71739 6.40264,-5.57649 2.34106,-4.68133 4.68177,-9.36274 7.02225,-14.04451 -0.55051,-5.3698 -1.10127,-10.73965 -1.6523,-16.10987 0,0 2.7e-4,2.6e-4 0,0"
       inkscape:export-filename="E:\Hackathon\SadDuck.png"
       inkscape:export-xdpi="800"
       inkscape:export-ydpi="800" />
    <path
       style="fill:#ffd42a;stroke:#ffd42a;stroke-width:0.264583px;stroke-linecap:butt;stroke-linejoin:miter;stroke-opacity:1"
       d="m 86.99163,50.76934 c 5.094445,2.134158 10.189023,4.268372 14.73294,7.538616 4.54393,3.270243 8.53689,7.676276 10.29243,12.151428 1.75554,4.475152 1.27364,9.018872 -0.41326,11.910321 -1.68689,2.891449 -4.57836,4.130645 -6.91906,4.543622 -2.34071,0.412977 -4.13066,-8.9e-5 -6.092691,-1.136044 -1.962033,-1.135956 -4.096202,-2.994747 -6.333672,-6.264899 -2.23747,-3.270153 -4.578174,-7.951565 -5.473203,-12.977258 -0.895029,-5.025692 -0.344277,-10.395542 0.206516,-15.765786 0,0 0,0 0,0"
       id="path1214-8-7-9"
       inkscape:path-effect="#path-effect1216-4-7-3"
       inkscape:original-d="m 86.99163,50.76934 c 5.09431,2.13448 10.18889,4.26869 15.28373,6.40264 3.99286,4.40647 7.98583,8.8125 11.97914,13.21836 -0.4822,4.54417 -0.96411,9.08789 -1.44575,13.63143 -2.89185,1.23951 -5.78331,2.47871 -8.67456,3.71766 -1.79029,-0.41281 -3.58024,-0.82588 -5.36996,-1.23922 -2.13452,-1.8586 -4.26869,-3.71739 -6.40264,-5.57649 -2.34106,-4.68133 -4.68177,-9.36274 -7.02225,-14.04451 0.55051,-5.3698 1.10126,-10.73965 1.65229,-16.10987 0,0 -2.6e-4,2.6e-4 0,0"
       inkscape:export-filename="E:\Hackathon\SadDuck.png"
       inkscape:export-xdpi="800"
       inkscape:export-ydpi="800" />
    <path
       id="path1558-37-6"
       style="fill:#2b0000;stroke:#2b0000;stroke-width:0.339;stroke-linecap:round;stroke-linejoin:round"
       d="m 46.6377,29.06257 c 0,3.42202 -2.72786,6.19611 -6.09284,6.19611 -3.36498,0 -6.09283,-2.7741 -6.09283,-6.19611 0,-1.95179 0.88741,-3.6928 2.2743,-4.82853 1.0447,-0.85551 2.37281,-1.36757 3.81853,-1.36757 1.55678,0 2.97719,0.59375 4.0542,1.57073 1.25096,1.13476 2.03864,2.78652 2.03864,4.62537 z"
       sodipodi:nodetypes="sssssss"
       inkscape:export-filename="E:\Hackathon\SadDuck.png"
       inkscape:export-xdpi="800"
       inkscape:export-ydpi="800" />
    <path
       id="path1558-3-2-9"
       style="fill:#2b0000;stroke:#2b0000;stroke-width:0.339;stroke-linecap:round;stroke-linejoin:round"
       d="m 83.91761,27.61682 a 6.0928369,6.1961055 0 0 1 -6.09284,6.1961 6.0928369,6.1961055 0 0 1 -6.09284,-6.1961 6.0928369,6.1961055 0 0 1 6.09284,-6.19611 6.0928369,6.1961055 0 0 1 6.09284,6.19611 z"
       inkscape:export-filename="E:\Hackathon\SadDuck.png"
       inkscape:export-xdpi="800"
       inkscape:export-ydpi="800" />
    <path
       style="fill:#ff9955;stroke:#ff9955;stroke-width:0.264583px;stroke-linecap:butt;stroke-linejoin:miter;stroke-opacity:1"
       d="m 49.838106,41.216278 c 0.968151,-0.812218 2.650651,-1.003477 3.957386,-1.82405 1.306734,-0.820573 2.237859,-2.270476 3.478071,-3.202042 1.240212,-0.931565 2.789213,-1.344631 4.303902,-1.29291 1.514688,0.05172 2.994838,0.568053 4.234029,1.407689 1.239191,0.839636 2.237413,2.002325 3.27779,2.753137 1.040378,0.750812 2.122698,1.089833 3.122164,1.993534 0.999467,0.903701 1.915993,2.371667 1.581899,2.812813 -0.334094,0.441147 -1.918913,-0.144436 -3.709367,-0.136836 -1.790455,0.0076 -3.786005,0.608493 -5.713562,0.973845 -1.927558,0.365352 -3.786148,0.494949 -5.724931,0.189607 -1.938783,-0.305341 -3.957043,-1.045712 -5.683946,-1.117778 -1.726904,-0.07207 -3.162693,0.524385 -3.75388,0.106248 -0.591188,-0.418137 -0.337706,-1.851039 0.630445,-2.663257 z"
       id="path2179-3-1"
       inkscape:path-effect="#path-effect2181-2-9"
       inkscape:original-d="m 49.12348,40.59535 c 1.68281,-0.191 3.36531,-0.38226 5.04762,-0.57379 0.93143,-1.44971 1.86256,-2.89961 2.79344,-4.34981 1.54932,-0.41281 3.09832,-0.82588 4.64708,-1.23922 1.48048,0.51662 2.96063,1.03295 4.44054,1.54903 0.99855,1.16302 1.99677,2.32571 2.99479,3.48821 1.08266,0.33931 2.16498,0.67833 3.24714,1.01712 0.9169,1.4684 1.83342,2.93637 2.74977,4.40421 -1.58466,-0.58536 -3.16948,-1.17094 -4.75465,-1.75682 -1.99559,0.60125 -3.99114,1.20214 -5.98742,1.80291 -1.85891,0.1299 -3.7175,0.2595 -5.57692,0.38887 -2.01822,-0.74019 -4.03648,-1.48056 -6.05483,-2.22113 -1.43527,0.59661 -2.87106,1.19306 -4.30702,1.78921 0.25375,-1.43269 0.50724,-2.86559 0.76046,-4.29879 z"
       sodipodi:nodetypes="cccccccccccccc"
       inkscape:export-filename="E:\Hackathon\SadDuck.png"
       inkscape:export-xdpi="800"
       inkscape:export-ydpi="800" />
    <path
       style="fill:#ffffff;stroke:#ffffff;stroke-width:0.264583px;stroke-linecap:butt;stroke-linejoin:miter;stroke-opacity:1"
       d="m 80.758787,26.562177 c -0.499167,0.170402 -0.718235,0.803263 -0.705938,1.314497 0.0123,0.511233 0.255696,0.900673 0.681724,1.192659 0.426029,0.291985 1.034529,0.486705 1.435966,0.365009 0.401436,-0.121696 0.596158,-0.559816 0.669223,-1.022211 0.07307,-0.462396 0.02439,-0.949198 -0.389264,-1.338735 -0.413651,-0.389538 -1.192543,-0.681621 -1.691711,-0.511219 z"
       id="path2520-02-1"
       inkscape:original-d="m 80.47874,26.09957 c -0.2188,0.63312 -0.43787,1.26598 -0.6572,1.89857 0.24368,0.38972 0.48708,0.77916 0.73022,1.16835 0.60879,0.19499 1.21729,0.38971 1.82554,0.58417 0.195,-0.43787 0.38972,-0.87599 0.58418,-1.31439 -0.0484,-0.48656 -0.0971,-0.97336 -0.14604,-1.46044 -0.77865,-0.29182 -1.55754,-0.58391 -2.3367,-0.87626 z"
       inkscape:path-effect="#path-effect2522-8-4"
       inkscape:export-filename="E:\Hackathon\SadDuck.png"
       inkscape:export-xdpi="800"
       inkscape:export-ydpi="800" />
    <path
       style="fill:#ffffff;stroke:#ffffff;stroke-width:0.264583px;stroke-linecap:butt;stroke-linejoin:miter;stroke-opacity:1"
       d="m 43.83133,27.808873 c -0.499164,0.170398 -0.718231,0.803259 -0.705936,1.31449 0.0123,0.511231 0.255693,0.900672 0.681721,1.192658 0.426027,0.291986 1.034537,0.486708 1.435971,0.365012 0.401435,-0.121695 0.596154,-0.559815 0.669218,-1.022212 0.07306,-0.462396 0.02438,-0.949198 -0.389268,-1.338731 -0.413652,-0.389533 -1.192541,-0.681615 -1.691706,-0.511217 z"
       id="path2520-0-2-5"
       inkscape:original-d="m 43.55128,27.34627 c -0.2188,0.63311 -0.43787,1.26597 -0.65719,1.89856 0.24367,0.38972 0.48707,0.77916 0.73021,1.16835 0.60879,0.19499 1.2173,0.38971 1.82555,0.58417 0.19499,-0.43787 0.38971,-0.87599 0.58417,-1.31439 -0.0484,-0.48656 -0.0971,-0.97336 -0.14604,-1.46043 -0.77865,-0.29183 -1.55754,-0.58391 -2.3367,-0.87626 z"
       inkscape:path-effect="#path-effect2522-1-09-3"
       inkscape:export-filename="E:\Hackathon\SadDuck.png"
       inkscape:export-xdpi="800"
       inkscape:export-ydpi="800" />
    <path
       id="path2818-87-0"
       style="fill:#d77c3f;fill-opacity:1;stroke:none;stroke-width:4.16663;stroke-linecap:round;stroke-linejoin:round"
       d="m 58.78087,37.90942 a 0.69370712,0.69370718 0 0 1 -0.6937,0.69371 0.69370712,0.69370718 0 0 1 -0.69371,-0.69371 0.69370712,0.69370718 0 0 1 0.69371,-0.69371 0.69370712,0.69370718 0 0 1 0.6937,0.69371 z"
       inkscape:export-filename="E:\Hackathon\SadDuck.png"
       inkscape:export-xdpi="800"
       inkscape:export-ydpi="800" />
    <path
       id="path2818-8-5-3"
       style="fill:#d77c3f;fill-opacity:1;stroke:none;stroke-width:4.16663;stroke-linecap:round;stroke-linejoin:round"
       d="m 64.14798,37.79989 a 0.69370712,0.69370718 0 0 1 -0.69371,0.69371 0.69370712,0.69370718 0 0 1 -0.6937,-0.69371 0.69370712,0.69370718 0 0 1 0.6937,-0.69371 0.69370712,0.69370718 0 0 1 0.69371,0.69371 z"
       inkscape:export-filename="E:\Hackathon\SadDuck.png"
       inkscape:export-xdpi="800"
       inkscape:export-ydpi="800" />
    <path
       style="fill:none;stroke:#d7ab00;stroke-width:1.065;stroke-linecap:round;stroke-linejoin:miter;stroke-miterlimit:4;stroke-dasharray:none;stroke-opacity:1"
       d="m 50.05874,14.33575 c -1.060622,1.543773 -2.636413,2.727001 -4.41475,3.31494 -1.479563,0.489161 -3.092348,0.56841 -4.61274,0.22666"
       id="path9949-4"
       inkscape:original-d="m 50.05874,14.33575 c -1.4714,1.10531 -2.94298,2.21029 -4.41475,3.31494 -1.47176,1.10465 -3.07498,0.15143 -4.61274,0.22666"
       inkscape:path-effect="#path-effect9951-6"
       inkscape:export-filename="E:\Hackathon\SadDuck.png"
       inkscape:export-xdpi="800"
       inkscape:export-ydpi="800" />
    <path
       style="fill:none;stroke:#d7ab00;stroke-width:1.065;stroke-linecap:round;stroke-linejoin:miter;stroke-miterlimit:4;stroke-dasharray:none;stroke-opacity:1"
       d="m 66.36982,13.20892 c 1.060622,1.543773 2.636413,2.727001 4.41475,3.31494 1.479563,0.489161 3.092348,0.56841 4.61274,0.22666"
       id="path9949-0-8"
       inkscape:original-d="m 66.36982,13.20892 c 1.4714,1.10531 2.94298,2.21029 4.41475,3.31494 1.47176,1.10465 3.07498,0.15143 4.61274,0.22666"
       inkscape:path-effect="#path-effect9951-3-3"
       inkscape:export-filename="E:\Hackathon\SadDuck.png"
       inkscape:export-xdpi="800"
       inkscape:export-ydpi="800" />
    <path
       style="fill:#80e5ff;stroke:#80e5ff;stroke-width:0.35045px;stroke-linecap:butt;stroke-linejoin:miter;stroke-opacity:1"
       d="m 38.121381,38.541941 c -0.343828,0.529423 -0.721842,1.527576 -0.859249,2.556075 -0.137408,1.028499 -0.03431,2.087116 0.584455,2.722157 0.618769,0.63504 1.75277,0.846765 2.457008,0.514097 0.704237,-0.332667 0.979148,-1.209807 0.807487,-2.10199 -0.171661,-0.892182 -0.790212,-1.799565 -1.202651,-2.525489 -0.412438,-0.725925 -0.618617,-1.270345 -0.876275,-1.512557 -0.257658,-0.242212 -0.566947,-0.181717 -0.910775,0.347707 z"
       id="path11054"
       inkscape:path-effect="#path-effect11056"
       inkscape:original-d="m 38.15562,38.07307 c -0.37763,0.99846 -0.75565,1.99661 -1.13403,2.99443 0.10349,1.05898 0.20656,2.1176 0.30929,3.1759 1.13443,0.21206 2.26843,0.42379 3.40209,0.63519 0.2753,-0.87685 0.55021,-1.75399 0.82475,-2.63148 -0.6182,-0.90708 -1.23674,-1.81447 -1.85569,-2.7222 -0.20581,-0.54413 -0.41199,-1.08855 -0.61856,-1.63332 -0.3089,0.0608 -0.61819,0.12129 -0.92785,0.18148 z"
       inkscape:export-filename="E:\Hackathon\SadDuck.png"
       inkscape:export-xdpi="800"
       inkscape:export-ydpi="800" />
  </g>
</svg>
