<?xml version="1.0" encoding="UTF-8" standalone="no"?>
<!-- Created with Inkscape (http://www.inkscape.org/) -->

<svg
   width="101.76428mm"
   height="133.41658mm"
   viewBox="0 0 101.76428 133.41658"
   version="1.1"
   id="svg13435"
   inkscape:version="1.1.2 (b8e25be833, 2022-02-05)"
   sodipodi:docname="VeryHappyDuck.svg"
   inkscape:export-filename="E:\Hackathon\VeryHappyDuck.png"
   inkscape:export-xdpi="800"
   inkscape:export-ydpi="800"
   xmlns:inkscape="http://www.inkscape.org/namespaces/inkscape"
   xmlns:sodipodi="http://sodipodi.sourceforge.net/DTD/sodipodi-0.dtd"
   xmlns="http://www.w3.org/2000/svg"
   xmlns:svg="http://www.w3.org/2000/svg">
  <sodipodi:namedview
     id="namedview13437"
     pagecolor="#ffffff"
     bordercolor="#666666"
     borderopacity="1.0"
     inkscape:pageshadow="2"
     inkscape:pageopacity="0.0"
     inkscape:pagecheckerboard="0"
     inkscape:document-units="mm"
     showgrid="false"
     fit-margin-top="0"
     fit-margin-left="0"
     fit-margin-right="0"
     fit-margin-bottom="0"
     inkscape:zoom="0.64052329"
     inkscape:cx="82.744845"
     inkscape:cy="518.3262"
     inkscape:window-width="1920"
     inkscape:window-height="1057"
     inkscape:window-x="-8"
     inkscape:window-y="-8"
     inkscape:window-maximized="1"
     inkscape:current-layer="layer1" />
  <defs
     id="defs13432">
    <inkscape:path-effect
       effect="spiro"
       id="path-effect894-2"
       is_visible="true"
       lpeversion="1" />
    <inkscape:path-effect
       effect="spiro"
       id="path-effect898-4"
       is_visible="true"
       lpeversion="1" />
    <inkscape:path-effect
       effect="spiro"
       id="path-effect898-3-5"
       is_visible="true"
       lpeversion="1" />
    <inkscape:path-effect
       effect="spiro"
       id="path-effect890-2"
       is_visible="true"
       lpeversion="1" />
    <inkscape:path-effect
       effect="bspline"
       id="path-effect1216-3"
       is_visible="true"
       lpeversion="1"
       weight="33.333333"
       steps="2"
       helper_size="0"
       apply_no_weight="true"
       apply_with_weight="true"
       only_selected="false" />
    <inkscape:path-effect
       effect="bspline"
       id="path-effect1216-4-4"
       is_visible="true"
       lpeversion="1"
       weight="33.333333"
       steps="2"
       helper_size="0"
       apply_no_weight="true"
       apply_with_weight="true"
       only_selected="false" />
    <inkscape:path-effect
       effect="bspline"
       id="path-effect2181-7"
       is_visible="true"
       lpeversion="1"
       weight="33.333333"
       steps="2"
       helper_size="0"
       apply_no_weight="true"
       apply_with_weight="true"
       only_selected="false" />
  </defs>
  <g
     inkscape:label="Layer 1"
     inkscape:groupmode="layer"
     id="layer1"
     transform="translate(-49.081696,-10.949566)">
    <path
       style="fill:#ffdd55;stroke:#ffe680;stroke-width:0.264583px;stroke-linecap:butt;stroke-linejoin:miter;stroke-opacity:1"
       d="m 75.346329,72.848389 c -3.132931,3.16831 -5.828089,6.737379 -8.46801,10.326844 -3.077254,4.184101 -6.122244,8.463413 -8.077905,13.275022 -1.955661,4.811605 -2.752434,10.265575 -1.216255,15.227065 1.503498,4.85594 5.133812,8.85674 9.414107,11.59894 4.280295,2.74221 9.193228,4.3361 14.131093,5.54362 12.207171,2.98517 25.308141,3.71791 37.176641,-0.41308 6.31156,-2.19683 12.26084,-5.84128 16.31641,-11.15299 4.51483,-5.91321 6.40722,-13.69968 5.36996,-21.066757 -1.16343,-8.263196 -5.77642,-15.691059 -11.35953,-21.892904 -2.25404,-2.503837 -4.69143,-4.861002 -7.43533,-6.81572 -4.86674,-3.467007 -10.6683,-5.604779 -16.61963,-6.140456 -5.951331,-0.535677 -12.037261,0.530318 -17.458951,3.042406 -4.409442,2.043072 -8.355575,5.012397 -11.7726,8.46801 z"
       id="path892-9"
       inkscape:path-effect="#path-effect894-2"
       inkscape:original-d="m 75.346329,72.848389 c -3.92447,2.822404 -5.64508,6.884824 -8.46801,10.326844 -2.82294,3.44202 -6.19584,19.001657 -9.29416,28.502087 -3.09832,9.50043 15.69707,11.42863 23.5452,17.14256 7.84814,5.71392 24.784691,-0.27512 37.176641,-0.41308 12.39195,-0.13795 10.87787,-7.43506 16.31641,-11.15299 5.43854,-3.71793 3.58024,-14.04424 5.36996,-21.066757 1.78972,-7.02251 -7.57275,-14.595 -11.35953,-21.892904 -3.78677,-7.2979 -4.95662,-4.54355 -7.43533,-6.81572 -2.4787,-2.27217 -22.718791,-2.0651 -34.078581,-3.09805 -11.35979,-1.03295 -7.84814,5.6456 -11.7726,8.46801 z" />
    <path
       style="fill:#ff9955;stroke:#ff9955;stroke-width:0.264583px;stroke-linecap:butt;stroke-linejoin:miter;stroke-opacity:1"
       d="m 79.270529,128.20027 c -0.329942,0.66912 -0.49833,1.40371 -0.706746,2.12006 -0.208417,0.71634 -0.468403,1.43716 -0.945554,2.01067 -0.373653,0.44911 -0.868258,0.78942 -1.404216,1.02194 -0.535958,0.23252 -1.113073,0.36031 -1.693834,0.42382 -1.327166,0.14512 -2.684297,-0.0388 -3.994276,0.21881 -0.654989,0.12883 -1.297627,0.37309 -1.819813,0.78893 -0.522185,0.41585 -0.915399,1.01529 -1.001621,1.67724 -0.06793,0.52149 0.05814,1.06236 0.330188,1.51242 0.272043,0.45007 0.685698,0.80925 1.159798,1.03683 0.474101,0.22758 1.006551,0.32556 1.532057,0.30538 0.525506,-0.0202 1.043892,-0.15665 1.521767,-0.37619 0.765122,-0.35151 1.416813,-0.90608 2.141081,-1.33551 0.362134,-0.21472 0.745671,-0.39927 1.153477,-0.50385 0.407807,-0.10458 0.84212,-0.12665 1.249252,-0.0195 0.436472,0.1149 0.826598,0.37473 1.138285,0.70117 0.311686,0.32644 0.548829,0.71783 0.740909,1.12626 0.384159,0.81686 0.595912,1.70894 1.012316,2.50984 0.407872,0.7845 1.035863,1.48555 1.855099,1.81819 0.409618,0.16631 0.861105,0.23614 1.299384,0.17817 0.438279,-0.058 0.861816,-0.24659 1.182797,-0.5506 0.401228,-0.38001 0.624046,-0.91759 0.721327,-1.46159 0.09728,-0.54399 0.07956,-1.10108 0.06521,-1.65352 -0.01434,-0.55243 -0.0245,-1.11051 0.08734,-1.6517 0.111847,-0.54118 0.357364,-1.07136 0.778405,-1.42929 0.387145,-0.32912 0.899703,-0.49038 1.407623,-0.5051 0.507921,-0.0147 1.012349,0.10924 1.483897,0.29856 1.668672,0.66995 2.903142,2.10863 4.46277,3.00354 0.779814,0.44745 1.663711,0.75941 2.561916,0.72003 0.449103,-0.0197 0.896543,-0.12853 1.294283,-0.33801 0.397741,-0.20949 0.744317,-0.5214 0.975191,-0.90712 0.269305,-0.44992 0.374139,-0.99108 0.32009,-1.51265 -0.05405,-0.52157 -0.262913,-1.02245 -0.57288,-1.44539 -0.619934,-0.84588 -1.615324,-1.35672 -2.63873,-1.58577 -1.512597,-0.33854 -3.091419,-0.11924 -4.634879,-0.26167 -0.77173,-0.0712 -1.54468,-0.23691 -2.233377,-0.59235 -0.688696,-0.35544 -1.290174,-0.91393 -1.599754,-1.62442 -0.279777,-0.64209 -0.308182,-1.36162 -0.326614,-2.06178 -0.01843,-0.70016 -0.0345,-1.41801 -0.292996,-2.06896 -0.257082,-0.64738 -0.750842,-1.19379 -1.358157,-1.53491 -0.607315,-0.34113 -1.323046,-0.4785 -2.016162,-0.40933 -0.693116,0.0692 -1.361677,0.3416 -1.919984,0.75812 -0.558307,0.41652 -1.006821,0.97446 -1.314877,1.5992 z"
       id="path896-2"
       inkscape:path-effect="#path-effect898-4"
       inkscape:original-d="m 79.270529,128.20027 c -2.20333,0.13742 -1.10126,2.75408 -1.6523,4.13073 -0.55103,1.37665 -2.0651,0.96411 -3.09805,1.44576 -1.03295,0.48165 -4.54354,1.79025 -6.81571,2.68498 -2.27217,0.89473 3.02947,1.65256 4.54381,2.47844 1.51434,0.82588 3.02947,-1.23895 4.54381,-1.85883 1.51434,-0.61987 1.92794,2.89178 2.89151,4.33727 0.96358,1.4455 2.89178,0.96411 4.33728,1.44576 1.44549,0.48166 1.10179,-4.13047 1.65229,-6.1961 0.5505,-2.06564 1.92794,-0.13743 2.89152,-0.20654 0.96357,-0.0691 6.19637,1.65256 9.29416,2.47844 3.097791,0.82588 -1.92741,-3.02894 -2.89152,-4.54381 -0.9641,-1.51487 -5.64507,-1.65203 -8.46801,-2.47844 -2.82294,-0.82641 -0.41281,-2.75356 -0.61961,-4.13074 -0.2068,-1.37718 -4.40586,0.27565 -6.60918,0.41308 z" />
    <path
       style="fill:#ff9955;stroke:#ff9955;stroke-width:0.264583px;stroke-linecap:butt;stroke-linejoin:miter;stroke-opacity:1"
       d="m 114.0174,128.999 c -0.32994,0.66912 -0.49833,1.40371 -0.70675,2.12006 -0.20841,0.71634 -0.4684,1.43716 -0.94555,2.01067 -0.37365,0.44911 -0.86826,0.78942 -1.40422,1.02194 -0.53595,0.23252 -1.11307,0.36031 -1.69383,0.42382 -1.32717,0.14512 -2.6843,-0.0388 -3.99428,0.21881 -0.65498,0.12883 -1.29762,0.37309 -1.81981,0.78893 -0.52218,0.41585 -0.9154,1.01529 -1.00162,1.67724 -0.0679,0.52149 0.0581,1.06236 0.33019,1.51242 0.27204,0.45007 0.6857,0.80925 1.1598,1.03683 0.4741,0.22758 1.00655,0.32556 1.53205,0.30538 0.52551,-0.0202 1.0439,-0.15665 1.52177,-0.37619 0.76512,-0.35151 1.41681,-0.90608 2.14108,-1.33551 0.36213,-0.21472 0.74567,-0.39927 1.15348,-0.50385 0.4078,-0.10458 0.84212,-0.12665 1.24925,-0.0195 0.43647,0.1149 0.8266,0.37473 1.13828,0.70117 0.31169,0.32644 0.54883,0.71783 0.74091,1.12626 0.38416,0.81686 0.59592,1.70894 1.01232,2.50984 0.40787,0.7845 1.03586,1.48555 1.8551,1.81819 0.40962,0.16631 0.8611,0.23614 1.29938,0.17817 0.43828,-0.058 0.86182,-0.24659 1.1828,-0.5506 0.40123,-0.38001 0.62405,-0.91759 0.72133,-1.46159 0.0973,-0.54399 0.0795,-1.10108 0.0652,-1.65352 -0.0143,-0.55243 -0.0245,-1.11051 0.0873,-1.6517 0.11185,-0.54118 0.35737,-1.07136 0.77841,-1.42929 0.38714,-0.32912 0.8997,-0.49038 1.40762,-0.5051 0.50792,-0.0147 1.01235,0.10924 1.4839,0.29856 1.66867,0.66995 2.90314,2.10863 4.46277,3.00354 0.77981,0.44745 1.66371,0.75941 2.56192,0.72003 0.4491,-0.0197 0.89654,-0.12853 1.29428,-0.33801 0.39774,-0.20949 0.74432,-0.5214 0.97519,-0.90712 0.2693,-0.44992 0.37414,-0.99108 0.32009,-1.51265 -0.0541,-0.52157 -0.26291,-1.02245 -0.57288,-1.44539 -0.61993,-0.84588 -1.61532,-1.35672 -2.63873,-1.58577 -1.5126,-0.33854 -3.09142,-0.11924 -4.63488,-0.26167 -0.77173,-0.0712 -1.54468,-0.23691 -2.23338,-0.59235 -0.68869,-0.35544 -1.29017,-0.91393 -1.59975,-1.62442 -0.27978,-0.64209 -0.30818,-1.36162 -0.32661,-2.06178 -0.0184,-0.70016 -0.0345,-1.41801 -0.293,-2.06896 -0.25708,-0.64738 -0.75084,-1.19379 -1.35816,-1.53491 -0.60731,-0.34113 -1.32304,-0.4785 -2.01616,-0.40933 -0.69312,0.0692 -1.36168,0.3416 -1.91998,0.75812 -0.55831,0.41652 -1.00682,0.97446 -1.31488,1.5992 z"
       id="path896-8-0"
       inkscape:path-effect="#path-effect898-3-5"
       inkscape:original-d="m 114.0174,128.999 c -2.20332,0.13742 -1.10126,2.75408 -1.6523,4.13073 -0.55102,1.37665 -2.0651,0.96411 -3.09805,1.44576 -1.03295,0.48165 -4.54354,1.79025 -6.81571,2.68498 -2.27217,0.89473 3.02947,1.65256 4.54381,2.47844 1.51434,0.82588 3.02947,-1.23895 4.54381,-1.85883 1.51434,-0.61987 1.92794,2.89178 2.89151,4.33727 0.96358,1.4455 2.89179,0.96411 4.33728,1.44576 1.44549,0.48166 1.10179,-4.13047 1.65229,-6.1961 0.5505,-2.06564 1.92794,-0.13743 2.89152,-0.20654 0.96357,-0.0691 6.19637,1.65256 9.29416,2.47844 3.09779,0.82588 -1.92741,-3.02894 -2.89152,-4.54381 -0.9641,-1.51487 -5.64507,-1.65203 -8.46801,-2.47844 -2.82293,-0.82641 -0.41281,-2.75356 -0.61961,-4.13074 -0.2068,-1.37718 -4.40586,0.27565 -6.60918,0.41308 z" />
    <path
       style="fill:#ffdd55;stroke:#ffdd55;stroke-width:0.264583px;stroke-linecap:butt;stroke-linejoin:miter;stroke-opacity:1"
       d="m 83.607799,71.815699 c -2.176619,0.559194 -4.400688,0.984103 -6.647558,1.02817 -2.246871,0.04407 -4.525286,-0.303993 -6.570802,-1.23471 -3.493386,-1.589503 -6.075884,-4.793697 -7.53405,-8.343911 -1.458166,-3.550214 -1.890809,-7.439835 -1.96664,-11.277089 -0.127992,-6.476735 0.74533,-13.050368 3.30459,-19.00139 2.436702,-5.666038 6.380506,-10.660858 11.2593,-14.4343 6.734148,-5.208442 15.363888,-8.061777 23.848853,-7.367526 8.484968,0.69425 16.706218,5.064596 21.618618,12.017646 2.42282,3.429277 4.01275,7.362375 5.64736,11.22994 2.688,6.359945 5.58611,12.764798 6.40265,19.621 0.39285,3.29859 0.27464,6.736689 -0.99632,9.805836 -0.63549,1.534574 -1.55769,2.959148 -2.75896,4.106188 -1.20127,1.14704 -2.68614,2.010279 -4.29966,2.404386 -2.10039,0.513028 -4.32004,0.221326 -6.40903,-0.33633 -2.08899,-0.557656 -4.10141,-1.375392 -6.18972,-1.93557 -5.44317,-1.460099 -11.25161,-1.117421 -16.729481,0.20653 -4.045291,0.977709 -7.948283,2.475561 -11.97915,3.51113 z"
       id="path888-4"
       inkscape:path-effect="#path-effect890-2"
       inkscape:original-d="m 83.607799,71.815699 c -3.99331,1.17012 -8.81197,-0.13743 -13.21836,-0.20654 -4.40638,-0.0691 -6.33353,-13.0804 -9.50069,-19.621 -3.16716,-6.5406 2.20332,-12.66733 3.30459,-19.00139 1.10126,-6.33406 6.92229,-7.48063 11.2593,-14.4343 4.33701,-6.953672 31.285531,2.51617 45.467471,4.65012 14.18193,2.13395 3.37572,5.92909 5.64736,11.22994 2.27164,5.30085 4.2687,13.08093 6.40265,19.621 2.13395,6.54007 -5.3697,10.87787 -8.05494,16.31641 -2.68525,5.438554 -8.3989,-1.51434 -12.59875,-2.2719 -4.19985,-0.75757 -11.15273,0.13795 -16.729481,0.20653 -5.57676,0.0686 -7.98584,2.34102 -11.97915,3.51113 z"
       sodipodi:nodetypes="ssssssssssss" />
    <path
       style="fill:#ffd42a;stroke:#ffd42a;stroke-width:0.264583px;stroke-linecap:butt;stroke-linejoin:miter;stroke-opacity:1"
       d="m 75.346329,72.848389 c -5.094446,2.13416 -10.189024,4.268375 -14.732945,7.538619 -4.543922,3.270244 -8.536889,7.676277 -10.292426,12.151429 -1.755538,4.475151 -1.273628,9.018873 0.413264,11.910313 1.686892,2.89145 4.578353,4.13065 6.919059,4.54363 2.340705,0.41297 4.130656,-9e-5 6.092689,-1.13605 1.962033,-1.13595 4.096202,-2.99474 6.333671,-6.2649 2.23747,-3.270146 4.578175,-7.951559 5.473204,-12.977251 0.895029,-5.025692 0.344277,-10.395542 -0.206516,-15.76579 0,0 0,0 0,0"
       id="path1214-0"
       inkscape:path-effect="#path-effect1216-3"
       inkscape:original-d="m 75.346329,72.848389 c -5.09431,2.134484 -10.18889,4.268694 -15.28373,6.402644 -3.99286,4.40647 -7.98583,8.8125 -11.97914,13.21836 0.4822,4.54417 0.96411,9.087887 1.44576,13.631427 2.89184,1.23951 5.7833,2.47871 8.67455,3.71766 1.79029,-0.41281 3.58024,-0.82588 5.36996,-1.23922 2.13452,-1.8586 4.26869,-3.71739 6.40264,-5.57649 2.34106,-4.681327 4.68177,-9.362737 7.02225,-14.044507 -0.55051,-5.3698 -1.10126,-10.73965 -1.65229,-16.109874 0,0 2.7e-4,2.6e-4 0,0" />
    <path
       style="fill:#ffd42a;stroke:#ffd42a;stroke-width:0.264583px;stroke-linecap:butt;stroke-linejoin:miter;stroke-opacity:1"
       d="m 124.58135,70.596879 c 5.09444,2.134159 10.18902,4.268375 14.73295,7.538619 4.54392,3.270244 8.53688,7.676277 10.29242,12.151429 1.75554,4.475151 1.27363,9.018871 -0.41326,11.910323 -1.68689,2.89144 -4.57836,4.13064 -6.91906,4.54362 -2.34071,0.41297 -4.13066,-9e-5 -6.09269,-1.13605 -1.96203,-1.13595 -4.0962,-2.99474 -6.33367,-6.264896 -2.23748,-3.270153 -4.57818,-7.95156 -5.47321,-12.977253 -0.89503,-5.025694 -0.34428,-10.395544 0.20652,-15.765792 0,0 0,0 0,0"
       id="path1214-8-4"
       inkscape:path-effect="#path-effect1216-4-4"
       inkscape:original-d="m 124.58135,70.596879 c 5.09431,2.13448 10.18889,4.268694 15.28373,6.402644 3.99286,4.40647 7.98583,8.8125 11.97914,13.21836 -0.4822,4.54417 -0.96411,9.08789 -1.44576,13.631427 -2.89184,1.23951 -5.7833,2.47871 -8.67455,3.71766 -1.79029,-0.41281 -3.58024,-0.82588 -5.36996,-1.23922 -2.13452,-1.8586 -4.26869,-3.71739 -6.40264,-5.57649 -2.34107,-4.681327 -4.68177,-9.362737 -7.02226,-14.044507 0.55051,-5.3698 1.10127,-10.73965 1.6523,-16.109874 0,0 -2.7e-4,2.6e-4 0,0" />
    <path
       style="fill:#ff9955;stroke:#ff9955;stroke-width:0.264583px;stroke-linecap:butt;stroke-linejoin:miter;stroke-opacity:1"
       d="m 86.843696,59.096627 c 0.895154,-0.154998 2.650712,0.189231 4.079107,-0.32714 1.428395,-0.516371 2.529897,-1.893249 3.855295,-2.788288 1.325398,-0.89504 2.874397,-1.308105 4.389082,-1.256386 1.51468,0.05172 2.99484,0.568055 4.23405,1.2738 1.23921,0.705745 2.23745,1.600721 3.54552,1.962017 1.30806,0.361296 2.92589,0.189188 3.80364,0.241 0.87774,0.05181 1.01543,0.327184 0.70553,0.877805 -0.3099,0.55062 -1.06718,1.376748 -2.56453,2.306142 -1.49735,0.929393 -3.73475,1.962042 -6.98769,2.444 -3.252947,0.481958 -7.521287,0.413113 -10.361175,-0.223603 -2.839887,-0.636717 -4.251194,-1.841491 -4.939799,-2.770911 -0.688606,-0.929419 -0.654184,-1.583438 0.24097,-1.738436 z"
       id="path2179-5"
       inkscape:path-effect="#path-effect2181-7"
       inkscape:original-d="m 85.982979,58.597339 c 1.75583,0.3445 3.51139,0.68872 5.26669,1.03269 1.10182,-1.37668 2.20332,-2.75356 3.30459,-4.13074 1.54932,-0.41282 3.09832,-0.82588 4.64708,-1.23922 1.480471,0.51662 2.960631,1.03295 4.440541,1.54903 0.99855,0.89527 1.99679,1.79025 2.99478,2.68497 1.61818,-0.17185 3.23601,-0.34396 4.85362,-0.51634 0.13796,0.27566 0.27565,0.55103 0.41307,0.82615 -0.75705,0.82643 -1.51433,1.65256 -2.2719,2.47844 -2.23726,1.03297 -4.47466,2.06562 -6.71245,3.09806 -4.268251,-0.0686 -8.536591,-0.13743 -12.805281,-0.20654 -1.4111,-1.20456 -2.82241,-2.40933 -4.23401,-3.6144 0.0347,-0.65378 0.0691,-1.3078 0.10327,-1.9621 z"
       sodipodi:nodetypes="ccccccccccccc" />
    <path
       id="path2818-6"
       style="fill:#d77c3f;fill-opacity:1;stroke:none;stroke-width:4.16663;stroke-linecap:round;stroke-linejoin:round"
       d="m 96.370589,57.736959 a 0.69370712,0.69370718 0 0 1 -0.69371,0.69371 0.69370712,0.69370718 0 0 1 -0.6937,-0.69371 0.69370712,0.69370718 0 0 1 0.6937,-0.69371 0.69370712,0.69370718 0 0 1 0.69371,0.69371 z" />
    <path
       id="path2818-8-3"
       style="fill:#d77c3f;fill-opacity:1;stroke:none;stroke-width:4.16663;stroke-linecap:round;stroke-linejoin:round"
       d="m 101.7377,57.627429 a 0.69370712,0.69370718 0 0 1 -0.69371,0.69371 0.69370712,0.69370718 0 0 1 -0.69371,-0.69371 0.69370712,0.69370718 0 0 1 0.69371,-0.69371 0.69370712,0.69370718 0 0 1 0.69371,0.69371 z" />
    <path
       style="fill:none;fill-opacity:1;stroke:#000000;stroke-width:2.165;stroke-linecap:round;stroke-linejoin:miter;stroke-miterlimit:4;stroke-dasharray:none;stroke-opacity:1"
       d="m 72.391169,49.568829 c 0.0951,-1.008652 0.54458,-1.980372 1.25161,-2.706005 0.70703,-0.725632 1.66675,-1.200167 2.67259,-1.321464 1.13209,-0.136522 2.31244,0.179683 3.22467,0.863857 0.91223,0.684173 1.54629,1.728777 1.73221,2.853806"
       id="path4882" />
    <path
       style="fill:none;fill-opacity:1;stroke:#000000;stroke-width:2.165;stroke-linecap:round;stroke-linejoin:miter;stroke-miterlimit:4;stroke-dasharray:none;stroke-opacity:1"
       d="m 113.59528,47.467763 c 0.0951,-1.008652 0.54458,-1.980372 1.25161,-2.706005 0.70703,-0.725632 1.66675,-1.200167 2.67259,-1.321464 1.13209,-0.136522 2.31244,0.179683 3.22467,0.863857 0.91223,0.684173 1.54629,1.728777 1.73221,2.853806"
       id="path4882-4" />
  </g>
</svg>
